<svg width="550" height="99" viewBox="0 0 550 99" fill="none" xmlns="http://www.w3.org/2000/svg">
<path fill-rule="evenodd" clip-rule="evenodd" d="M386.585 9.74649C385.867 10.3476 385.111 10.4445 384.297 10.0373C383.502 9.63016 383.114 8.95153 383.172 8.00146C383.172 7.82696 383.191 7.69123 383.25 7.59429H383.172L383.25 7.41978C383.279 7.36161 383.308 7.30829 383.337 7.25497C383.366 7.20165 383.395 7.14833 383.424 7.09016C383.928 5.7717 383.754 4.55017 382.92 3.44498C381.698 2.16529 380.206 1.37034 378.441 1.04072C376.444 0.594765 374.486 0.711101 372.547 1.37034C371.5 1.75812 370.588 2.3398 369.813 3.11537C367.215 5.55841 366.032 8.54436 366.245 12.0732V16.1449H376.366V16.9787H366.245V50.8323C366.245 51.3946 366.42 51.8212 366.749 52.112C367.079 52.4222 367.409 52.5773 367.738 52.5773L368.145 52.6549V53.0621H361.844V52.6549C362.387 52.7131 362.872 52.5773 363.259 52.2477C363.647 51.9181 363.86 51.4722 363.919 50.9293V16.9593H356.531V16.1256H363.919V12.0538C363.919 9.57199 364.617 7.28406 366.032 5.20941C367.447 3.13476 369.328 1.66117 371.713 0.769269C372.993 0.265148 374.311 0.0130877 375.688 0.0130877C376.967 -0.04508 378.228 0.0906448 379.508 0.420262C379.953 0.536597 380.399 0.672322 380.826 0.827436C381.602 1.21522 382.319 1.68056 382.978 2.24285C384.529 3.46437 385.828 4.91857 386.875 6.64421C386.934 6.76055 386.992 6.91566 387.05 7.14833L387.127 7.22589C387.127 7.34222 387.147 7.41978 387.205 7.47795V7.55551C387.476 8.38924 387.263 9.10665 386.546 9.70771L386.585 9.74649ZM108.606 40.944L108.102 40.692L108.16 40.7502C106.435 44.3953 103.895 47.2843 100.521 49.4172C97.1474 51.5306 93.4634 52.5776 89.4886 52.5194C85.8822 52.5194 82.5473 51.3561 79.4838 49.0681C76.4009 46.7802 73.9772 43.6779 72.174 39.7419C70.3708 35.8059 69.4789 31.579 69.4789 27.042C69.4789 20.0812 71.4372 14.1287 75.3345 9.20384C79.2317 4.27897 83.9433 1.81654 89.4692 1.81654C94.2778 1.87471 98.4852 3.54218 102.072 6.79958C103.449 8.23438 103.953 9.53346 103.565 10.6968V10.9489C103.565 11.4336 103.74 11.8602 104.108 12.2286C104.457 12.597 104.903 12.7715 105.388 12.7715C105.873 12.7715 106.299 12.5776 106.667 12.2286C107.036 11.8796 107.21 11.453 107.21 10.9489C107.21 10.6193 107.133 10.309 106.958 10.0376C105.136 6.99347 102.654 4.64737 99.5323 2.97989C96.3912 1.31242 93.0756 0.536848 89.5274 0.653184C85.4363 0.653184 81.6748 1.77776 78.2816 4.0463C74.8885 6.31485 72.174 9.47529 70.1575 13.5083C68.1411 17.5412 67.1328 22.0395 67.1328 27.0226C67.1328 34.4874 69.3044 40.7308 73.6088 45.772C77.9132 50.7938 83.2065 53.3144 89.4498 53.3144C93.5798 53.3726 97.3994 52.2868 100.889 50.0376C104.38 47.7885 106.939 44.7637 108.606 40.944ZM131.409 14.6333C126.755 14.6333 122.8 16.5334 119.542 20.3531C116.285 24.1728 114.656 28.7487 114.656 34.1195C114.656 39.4903 116.285 44.0662 119.542 47.8471C122.8 51.628 126.755 53.5281 131.409 53.5281C136.062 53.5281 140.017 51.628 143.275 47.8471C146.532 44.0662 148.161 39.4709 148.161 34.1195C148.161 28.7681 146.532 24.1728 143.275 20.3531C140.017 16.5334 136.062 14.6333 131.409 14.6333ZM131.409 52.7913C127.531 52.7913 124.157 50.8912 121.287 47.0715V47.0521C118.398 43.2518 116.964 38.928 116.964 34.1195C116.964 29.311 118.418 25.0065 121.287 21.1869C124.157 17.3672 127.531 15.467 131.409 15.467C133.949 15.467 136.333 16.3589 138.583 18.1621C140.832 19.9653 142.596 22.3114 143.895 25.1811C145.194 28.0507 145.854 31.0366 145.854 34.1389C145.854 38.9474 144.399 43.2518 141.53 47.0715C138.66 50.8912 135.286 52.7913 131.409 52.7913ZM160.366 46.082C160.366 46.4116 160.385 46.7412 160.443 47.0708C160.502 47.4004 160.657 47.9045 160.948 48.5638C161.219 49.223 161.587 49.7853 162.072 50.27C162.537 50.7354 163.294 51.1619 164.321 51.5109C165.349 51.8793 166.551 52.0538 167.928 52.0538V52.8876C164.496 53.2172 161.646 52.1314 159.377 49.6496C158.543 48.6026 158.097 47.4004 158.059 46.082V16.9593H153.25V16.1256H158.059V9.06788C158.059 8.52498 157.845 8.07902 157.438 7.74941C157.031 7.41979 156.566 7.28407 156.061 7.34223V6.93506H162.363V7.34223H160.366V16.145H166.59V16.9787H160.366V46.082ZM179.029 47.0708C178.971 46.7412 178.952 46.4116 178.952 46.082V16.9787H185.176V16.145H178.952V7.34223H180.949V6.93506H174.647V7.34223C175.151 7.28407 175.617 7.41979 176.024 7.74941C176.431 8.07902 176.644 8.52498 176.644 9.06788V16.1256H171.836V16.9593H176.644V46.082C176.683 47.4004 177.129 48.6026 177.963 49.6496C180.231 52.1314 183.082 53.2172 186.514 52.8876V52.0538C185.137 52.0538 183.935 51.8793 182.907 51.5109C181.88 51.1619 181.123 50.7354 180.658 50.27C180.173 49.7853 179.805 49.223 179.533 48.5638C179.243 47.9045 179.088 47.4004 179.029 47.0708ZM194.62 20.3531C197.878 16.5334 201.833 14.6333 206.487 14.6333C211.14 14.6333 215.096 16.5334 218.353 20.3531C221.61 24.1728 223.239 28.7681 223.239 34.1195C223.239 39.4709 221.61 44.0662 218.353 47.8471C215.096 51.628 211.14 53.5281 206.487 53.5281C201.833 53.5281 197.878 51.628 194.62 47.8471C191.363 44.0662 189.734 39.4903 189.734 34.1195C189.734 28.7487 191.363 24.1728 194.62 20.3531ZM196.365 47.0715C199.235 50.8912 202.609 52.7913 206.487 52.7913C210.365 52.7913 213.738 50.8912 216.608 47.0715C219.477 43.2518 220.932 38.9474 220.932 34.1389C220.932 31.0366 220.272 28.0507 218.973 25.1811C217.674 22.3114 215.91 19.9653 213.661 18.1621C211.412 16.3589 209.027 15.467 206.487 15.467C202.609 15.467 199.235 17.3672 196.365 21.1869C193.496 25.0065 192.042 29.311 192.042 34.1195C192.042 38.928 193.477 43.2518 196.365 47.0521V47.0715ZM260.414 53.0432V52.636H260.298C260.123 52.636 259.968 52.6166 259.794 52.5585C259.619 52.5003 259.445 52.4227 259.251 52.3064C259.057 52.1901 258.882 52.0156 258.747 51.7635C258.611 51.5114 258.533 51.24 258.533 50.9685V22.6796C258.475 22.1367 258.398 21.6132 258.281 21.1091C257.952 19.6743 257.234 18.4528 256.129 17.4639C253.744 15.4281 251.01 14.5168 247.908 14.73C245.426 14.7882 243.041 15.3505 240.773 16.3975C238.504 17.4445 236.565 18.9181 234.956 20.7989V15.2342H236.856V14.9045H230.555V15.2342C231.059 15.176 231.524 15.3117 231.931 15.6413C232.339 15.971 232.552 16.3781 232.552 16.8822V50.9685C232.552 51.4533 232.358 51.8798 231.97 52.2095C231.582 52.5391 231.117 52.6748 230.555 52.6166V53.0238H236.856V52.6166H236.449C236.119 52.5585 235.79 52.384 235.46 52.0737C235.131 51.7635 234.956 51.3757 234.956 50.8716V22.6602C235.053 22.2725 235.383 21.7877 235.906 21.2061C236.449 20.6244 237.186 20.0039 238.155 19.3059C239.125 18.6079 240.443 18.0262 242.13 17.5609C243.817 17.0955 245.659 16.8629 247.656 16.8629C248.761 16.8629 249.769 16.9598 250.681 17.1537C251.592 17.367 252.309 17.5997 252.872 17.9099C253.415 18.2007 253.919 18.5497 254.365 18.9375C254.791 19.3253 255.14 19.6937 255.354 20.0621C255.586 20.4305 255.741 20.7989 255.858 21.1867C255.974 21.5744 256.052 21.8459 256.071 22.0204C256.11 22.1755 256.11 22.3112 256.11 22.4276V50.794C256.11 51.3563 255.916 51.8023 255.528 52.1707C255.14 52.5391 254.675 52.6942 254.113 52.636V53.0432H260.414ZM286.456 34.6229C289.228 36.3873 290.799 38.9079 291.186 42.1653C291.303 43.8716 290.973 45.4809 290.198 46.9739C288.976 49.2424 287.231 50.9486 284.924 52.0732C282.636 53.1978 280.212 53.605 277.672 53.2754C275.345 53.1009 273.251 52.3834 271.371 51.0844C269.49 49.7853 268.055 48.079 267.047 45.985L267.551 45.7329C268.54 47.73 269.955 49.32 271.778 50.5415C273.6 51.763 275.617 52.4416 277.827 52.6161C279.262 52.7906 280.658 52.6161 282.015 52.1508C283.373 51.6854 284.575 50.968 285.622 49.9986C286.669 49.0291 287.444 47.8464 287.948 46.4697C288.666 45.0931 288.976 43.6001 288.86 41.9908C288.802 40.2264 288.298 38.5977 287.367 37.1047C286.32 35.6117 284.963 34.5066 283.295 33.7892C281.918 33.2269 280.484 32.7421 278.971 32.2962C275.598 31.5788 272.631 30.0276 270.091 27.6428C268.811 26.3243 268.191 24.7344 268.191 22.9118C268.133 22.6985 268.133 22.4658 268.191 22.2526C268.404 19.8677 269.606 18.0257 271.758 16.6878C273.911 15.3694 276.373 14.6326 279.146 14.5356C279.921 14.4775 280.697 14.5162 281.472 14.6132C283.799 14.8265 285.971 15.5245 288.026 16.6878C288.142 16.746 288.22 16.7654 288.278 16.7654C288.879 17.1532 289.189 17.6767 289.189 18.3359C289.131 18.84 288.918 19.2472 288.569 19.5768C288.201 19.9065 287.774 20.081 287.289 20.081C287.018 20.081 286.727 20.0034 286.456 19.8677C286.184 19.7319 285.951 19.5187 285.758 19.2472C285.564 18.9758 285.467 18.6655 285.467 18.3359C285.467 16.9593 284.827 16.0092 283.567 15.5245C282.907 15.35 282.209 15.253 281.492 15.1949C280.716 15.0785 279.98 15.0591 279.243 15.1173C277.536 15.1755 275.888 15.5827 274.357 16.3582C272.65 17.3471 271.468 18.8013 270.828 20.6626C270.188 22.5434 270.266 24.4048 271.041 26.2274C272.36 28.3796 274.221 29.8531 276.606 30.6287C277.11 30.842 277.633 31.0359 278.176 31.2104L278.186 31.2133C278.745 31.3869 279.304 31.5605 279.921 31.7533C280.522 31.9472 281.046 32.1023 281.492 32.2186C283.256 32.7809 284.924 33.5759 286.475 34.6229H286.456ZM336.635 14.6333C331.982 14.6333 328.026 16.5334 324.769 20.3531C321.512 24.1728 319.883 28.7487 319.883 34.1195C319.883 39.4903 321.512 44.0662 324.769 47.8471C328.026 51.628 331.982 53.5281 336.635 53.5281C341.289 53.5281 345.244 51.628 348.501 47.8471C351.759 44.0662 353.387 39.4709 353.387 34.1195C353.387 28.7681 351.759 24.1728 348.501 20.3531C345.244 16.5334 341.289 14.6333 336.635 14.6333ZM336.635 52.7913C332.757 52.7913 329.384 50.8912 326.514 47.0715V47.0521C323.625 43.2518 322.19 38.928 322.19 34.1195C322.19 29.311 323.644 25.0065 326.514 21.1869C329.384 17.3672 332.757 15.467 336.635 15.467C339.175 15.467 341.56 16.3589 343.809 18.1621C346.058 19.9653 347.823 22.3114 349.122 25.1811C350.421 28.0507 351.08 31.0366 351.08 34.1389C351.08 38.9474 349.626 43.2518 346.756 47.0715C343.887 50.8912 340.513 52.7913 336.635 52.7913ZM415.813 0.72999C416.046 0.691212 416.201 0.691212 416.317 0.691212V0.671823V0.264648H410.016V0.594266C410.578 0.594266 411.043 0.768769 411.431 1.13716C411.819 1.50556 412.013 1.9709 412.013 2.5138V50.7155C412.013 51.2002 411.819 51.6462 411.431 52.034C411.043 52.4217 410.578 52.5962 410.016 52.5381V52.9452H416.317V52.5381L415.813 52.4605C415.483 52.4605 415.173 52.3054 414.863 51.9952C414.553 51.7043 414.398 51.2778 414.398 50.7155V2.43624C414.398 1.93212 414.572 1.54434 414.94 1.23411C415.309 0.923883 415.6 0.74938 415.813 0.72999ZM454.313 52.636V53.0432H448.011V52.636C448.573 52.6942 449.039 52.5391 449.426 52.1707C449.814 51.8023 450.008 51.3563 450.008 50.794V22.4276V22.4273C450.008 22.311 450.008 22.1754 449.969 22.0204C449.95 21.8459 449.872 21.5744 449.756 21.1867C449.64 20.7989 449.485 20.4305 449.252 20.0621C449.039 19.6937 448.69 19.3253 448.263 18.9375C447.817 18.5497 447.313 18.2007 446.77 17.9099C446.208 17.5997 445.49 17.367 444.579 17.1537C443.668 16.9598 442.66 16.8629 441.554 16.8629C439.557 16.8629 437.715 17.0955 436.029 17.5609C434.342 18.0262 433.023 18.6079 432.054 19.3059C431.084 20.0039 430.347 20.6244 429.805 21.2061C429.281 21.7877 428.951 22.2725 428.854 22.6602V50.8716C428.854 51.3757 429.029 51.7635 429.359 52.0737C429.688 52.384 430.018 52.5585 430.347 52.6166H430.755V53.0238H424.453V52.6166C425.015 52.6748 425.481 52.5391 425.869 52.2095C426.256 51.8798 426.45 51.4533 426.45 50.9685V16.8822C426.45 16.3781 426.237 15.971 425.83 15.6413C425.423 15.3117 424.957 15.176 424.453 15.2342V14.9045H430.755V15.2342H428.854V20.7989C430.464 18.9181 432.403 17.4445 434.671 16.3975C436.94 15.3505 439.325 14.7882 441.806 14.73C444.909 14.5168 447.643 15.4281 450.028 17.4639C451.133 18.4528 451.85 19.6743 452.18 21.1091C452.296 21.6132 452.374 22.1367 452.432 22.6796V50.9685C452.432 51.24 452.509 51.5114 452.645 51.7635C452.781 52.0156 452.955 52.1901 453.149 52.3064C453.343 52.4227 453.518 52.5003 453.692 52.5585C453.867 52.6166 454.022 52.636 454.196 52.636H454.313ZM495.463 51.9182C495.308 51.6661 495.192 51.3753 495.133 51.0457H495.114V2.4368C495.114 1.95206 495.308 1.50611 495.696 1.11833C496.083 0.730541 496.549 0.556038 497.111 0.614206V0.207031H490.81V0.614206L491.314 0.691763C491.643 0.691763 491.973 0.846877 492.303 1.1571C492.632 1.44794 492.807 1.87451 492.807 2.4368V24.2497C491.469 21.4383 489.51 19.1503 486.912 17.4053C484.314 15.6603 481.464 14.749 478.362 14.6326C473.708 14.6326 469.753 16.5328 466.495 20.3525C463.238 24.1721 461.609 28.748 461.609 34.1188C461.609 39.4897 463.238 44.0655 466.495 47.8464C469.753 51.6273 473.708 53.5275 478.362 53.5275C481.464 53.4111 484.314 52.4998 486.912 50.7936C489.51 49.0679 491.488 46.8188 492.807 43.988V52.6162H490.81V53.0234H497.111V52.6162C496.781 52.6743 496.471 52.6356 496.161 52.4998C495.87 52.3641 495.637 52.1702 495.463 51.9182ZM478.323 52.7907C474.426 52.7907 471.052 50.8905 468.202 47.0709C465.352 43.2706 463.936 38.9468 463.936 34.1382C463.936 30.9972 464.557 27.9918 465.836 25.1416C467.116 22.3108 468.861 19.9841 471.11 18.1809C473.34 16.3777 475.764 15.4858 478.362 15.4858C480.301 15.4858 482.162 16.0093 483.965 17.0563C485.749 18.1033 487.281 19.4993 488.56 21.2444C489.821 22.9894 490.829 24.9865 491.585 27.255C492.341 29.5236 492.71 31.8115 492.71 34.1382C492.71 38.9468 491.294 43.2512 488.444 47.0709C485.594 50.8905 482.22 52.7907 478.323 52.7907ZM510.981 52.6359V53.0431H504.68V52.6359C505.242 52.6941 505.707 52.539 506.095 52.1706C506.483 51.8022 506.696 51.3756 506.754 50.8909V16.9597C506.696 16.4556 506.463 16.029 506.056 15.68C505.649 15.3116 505.184 15.1759 504.68 15.2147V14.8851H510.981V15.2147H509.081V50.8134C509.081 51.3175 509.256 51.7053 509.585 52.0155C509.915 52.3257 510.225 52.5002 510.496 52.5584L511.001 52.6359H510.981ZM509.372 9.49487C508.965 9.88265 508.461 10.0765 507.879 10.0765C507.297 10.0765 506.812 9.88265 506.425 9.49487C506.037 9.10708 505.843 8.62235 505.843 8.04067C505.843 7.459 506.037 6.95488 506.425 6.5477C506.812 6.14053 507.297 5.92725 507.879 5.92725C508.461 5.92725 508.965 6.14053 509.372 6.5477C509.779 6.95488 509.992 7.459 509.992 8.04067C509.992 8.62235 509.779 9.10708 509.372 9.49487ZM547.739 46.7411C547.681 46.14 547.681 45.6941 547.739 45.4226L547.855 45.5002L547.933 42.1071V27.0028C548.166 24.7343 547.739 22.5821 546.692 20.5268C545.742 18.9757 544.307 17.7348 542.368 16.7847C540.429 15.8346 538.743 15.2723 537.308 15.0784C535.854 14.8845 534.419 14.7876 532.984 14.7876C530.715 14.7876 528.699 15.0784 526.896 15.6601C525.093 16.2418 523.735 16.8622 522.785 17.5603C521.835 18.2389 521.06 19.0726 520.459 20.0033C519.838 20.9534 519.47 21.632 519.334 22.0392C519.198 22.4464 519.101 22.7954 519.043 23.0668C518.985 23.1831 518.966 23.2801 518.966 23.3964C518.966 23.8812 519.14 24.3077 519.508 24.6761C519.857 25.0445 520.303 25.219 520.827 25.219C521.35 25.219 521.777 25.0251 522.145 24.6761C522.514 24.3271 522.688 23.9005 522.688 23.3964C522.63 23.2801 522.611 23.2025 522.611 23.1444C522.223 22.0392 522.339 20.9728 522.94 19.9839C524.162 18.4909 525.655 17.3664 527.419 16.5908C529.203 15.8152 531.045 15.505 532.984 15.6795C534.865 15.6795 537.056 16.1836 539.499 17.1725C541.942 18.1613 543.687 19.6737 544.676 21.7289C545.393 23.377 545.703 25.1027 545.587 26.8671V27.5263C543.163 29.3489 540.449 30.6674 537.463 31.5011C536.629 31.7144 535.679 31.9083 534.632 32.0828C533.566 32.2379 532.616 32.3736 531.762 32.49C530.89 32.5869 529.94 32.7227 528.893 32.8972C527.826 33.0717 526.896 33.2656 526.062 33.4788C525.616 33.5758 525.151 33.7115 524.647 33.886C523.212 34.332 521.99 35.1269 520.963 36.2515C519.935 37.3761 519.276 38.6945 519.004 40.1875C518.772 41.6223 518.81 43.0571 519.082 44.4919C519.411 46.4309 520.226 48.1177 521.525 49.5913C522.824 51.0455 524.414 52.0925 526.295 52.6936C527.4 53.0814 528.524 53.2947 529.688 53.3528C530.463 53.3528 531.258 53.3334 532.092 53.2753C536.28 53.0038 540.1 51.5884 543.532 49.0484C544.249 48.5055 544.928 47.8657 545.529 47.1483C545.587 47.8657 545.781 48.5637 546.11 49.2229C546.44 49.8821 546.886 50.4638 547.429 50.9679C547.972 51.4721 548.592 51.8598 549.252 52.1313L549.659 51.4721C549.213 51.2588 548.844 50.871 548.534 50.3087C548.224 49.7464 548.03 49.1647 547.953 48.5637C547.86 47.9893 547.803 47.3972 547.747 46.8213L547.747 46.8194L547.739 46.7411ZM545.568 31.2103L545.49 32.2961H545.471V40.6722L545.393 42.0877C545.219 42.9214 544.967 43.7164 544.637 44.4919C544.016 45.7135 543.241 46.7605 542.31 47.6524C538.937 50.9098 534.942 52.5385 530.289 52.5385C527.691 52.6354 525.48 51.7823 523.658 49.9597C521.331 47.187 520.536 44.046 521.253 40.4977C521.486 37.9578 522.727 36.077 524.996 34.8555C526.256 34.2932 527.594 33.9054 528.97 33.6921C529.901 33.5176 531.317 33.3237 533.197 33.1104C535.078 32.8972 536.455 32.7033 537.347 32.5288C540.177 32.141 542.911 31.346 545.568 30.1245V31.2103ZM279.194 97.6963H277.333V86.722H275.297V84.9963H277.333V83.9299C277.333 82.3012 277.74 81.1379 278.574 80.4786C279.136 79.9939 279.989 79.7612 281.172 79.7612C281.579 79.7612 281.909 79.8 282.161 79.8582V81.6226C281.792 81.545 281.385 81.5063 280.959 81.5063C280.338 81.5063 279.892 81.6808 279.601 82.0104C279.33 82.34 279.194 82.9023 279.194 83.6972V85.0157H281.579V86.7414H279.194V97.6963ZM238.493 82.7862C236.748 80.7891 234.518 79.8003 231.804 79.8003H231.785C229.245 79.8003 227.073 80.6728 225.27 82.4178C223.525 84.1435 222.633 86.2957 222.633 88.9132C222.633 91.5308 223.505 93.7024 225.27 95.4474C227.054 97.1731 229.225 98.0456 231.785 98.0456C234.538 98.0456 236.806 97.0179 238.571 94.9627L237.233 93.7606C235.856 95.4086 234.034 96.223 231.785 96.223C229.71 96.223 228.004 95.525 226.646 94.1483C225.289 92.7717 224.611 91.0073 224.611 88.9132C224.611 86.8192 225.289 85.0742 226.646 83.6975C228.004 82.3015 229.729 81.6035 231.785 81.6035C234.014 81.6035 235.798 82.3985 237.155 83.9884L238.493 82.7862ZM169.353 82.7863C167.608 80.7892 165.378 79.8003 162.663 79.8003H162.644C160.104 79.8003 157.932 80.6728 156.129 82.4179C154.384 84.1435 153.492 86.2957 153.492 88.9133C153.492 91.5308 154.365 93.7024 156.129 95.4474C157.913 97.1731 160.085 98.0456 162.644 98.0456C165.397 98.0456 167.666 97.018 169.43 94.9627L168.092 93.7606C166.716 95.4087 164.893 96.223 162.644 96.223C160.569 96.223 158.863 95.525 157.506 94.1484C156.149 92.7717 155.47 91.0073 155.47 88.9133C155.47 86.8192 156.149 85.0742 157.506 83.6976C158.863 82.3015 160.589 81.6035 162.644 81.6035C164.874 81.6035 166.657 82.3985 168.015 83.9884L169.353 82.7863ZM170.875 91.3565C170.875 93.276 171.534 94.8853 172.833 96.165C174.152 97.4447 175.761 98.0846 177.642 98.0846C179.523 98.0846 181.132 97.4447 182.431 96.165C183.73 94.8853 184.389 93.276 184.389 91.3565C184.389 89.437 183.73 87.847 182.431 86.5673C181.113 85.2683 179.523 84.6284 177.642 84.6284C175.761 84.6284 174.152 85.2683 172.833 86.5673C171.534 87.847 170.875 89.437 170.875 91.3565ZM172.717 91.3371C172.717 89.9023 173.182 88.7196 174.113 87.7889C175.044 86.8388 176.226 86.3541 177.622 86.3541C179.018 86.3541 180.182 86.8194 181.113 87.7889C182.043 88.7002 182.509 89.9023 182.509 91.3371C182.509 92.7719 182.043 93.974 181.113 94.9241C180.182 95.8548 179.018 96.3201 177.622 96.3201C176.226 96.3201 175.044 95.8548 174.113 94.9241C173.182 93.974 172.717 92.7719 172.717 91.3371ZM188.115 96.165C186.816 94.8853 186.156 93.276 186.156 91.3565C186.156 89.437 186.816 87.847 188.115 86.5674C189.433 85.2683 191.043 84.6284 192.923 84.6284C194.804 84.6284 196.394 85.2683 197.712 86.5674C199.012 87.847 199.671 89.437 199.671 91.3565C199.671 93.276 199.012 94.8853 197.712 96.165C196.413 97.4447 194.804 98.0846 192.923 98.0846C191.043 98.0846 189.433 97.4447 188.115 96.165ZM189.414 87.7889C188.483 88.7196 188.018 89.9023 188.018 91.3371C188.018 92.7719 188.483 93.9741 189.414 94.9241C190.345 95.8548 191.527 96.3202 192.923 96.3202C194.319 96.3202 195.483 95.8548 196.413 94.9241C197.344 93.9741 197.809 92.7719 197.809 91.3371C197.809 89.9023 197.344 88.7002 196.413 87.7889C195.483 86.8194 194.319 86.3541 192.923 86.3541C191.527 86.3541 190.345 86.8388 189.414 87.7889ZM202.008 80.1289V94.4963L201.969 94.477C201.969 95.2331 202.085 95.873 202.279 96.3965C202.492 96.9006 202.764 97.2884 203.113 97.5017C203.753 97.8701 204.431 98.064 205.187 98.064C205.711 98.064 206.099 97.9864 206.351 97.8507V96.2608C206.118 96.3189 205.808 96.3189 205.439 96.3189C204.858 96.3189 204.451 96.1638 204.218 95.873C203.985 95.5821 203.869 95.078 203.869 94.3606V80.1289H202.008ZM208.575 97.5225C208.323 97.2705 208.188 96.9602 208.188 96.6112C208.188 96.2622 208.323 95.9714 208.575 95.7193C208.827 95.4673 209.118 95.3315 209.448 95.3315C209.777 95.3315 210.068 95.4673 210.32 95.7193C210.572 95.952 210.708 96.2622 210.708 96.6112C210.708 96.9602 210.572 97.2705 210.32 97.5225C210.068 97.7552 209.777 97.8715 209.448 97.8715C209.118 97.8715 208.827 97.7552 208.575 97.5225ZM241.99 96.165C240.69 94.8853 240.031 93.276 240.031 91.3565C240.031 89.437 240.69 87.847 241.99 86.5673C243.308 85.2683 244.917 84.6284 246.798 84.6284C248.679 84.6284 250.269 85.2683 251.587 86.5673C252.886 87.847 253.546 89.437 253.546 91.3565C253.546 93.276 252.886 94.8853 251.587 96.165C250.288 97.4447 248.679 98.0846 246.798 98.0846C244.917 98.0846 243.308 97.4447 241.99 96.165ZM243.269 87.7889C242.339 88.7196 241.873 89.9023 241.873 91.3371C241.873 92.7719 242.339 93.974 243.269 94.9241C244.2 95.8548 245.383 96.3201 246.779 96.3201C248.175 96.3201 249.338 95.8548 250.269 94.9241C251.199 93.974 251.665 92.7719 251.665 91.3371C251.665 89.9023 251.199 88.7002 250.269 87.7889C249.338 86.8194 248.175 86.3541 246.779 86.3541C245.383 86.3541 244.2 86.8388 243.269 87.7889ZM255.844 97.6963H257.705V90.1151C257.705 89.0681 257.996 88.1956 258.578 87.5363C259.159 86.8577 259.877 86.5281 260.769 86.5281C261.661 86.5281 262.339 86.8189 262.843 87.4394C263.328 88.0405 263.58 88.8936 263.58 89.96V97.6769H265.441V90.0957C265.441 89.0487 265.732 88.1762 266.295 87.5169C266.857 86.8383 267.613 86.5087 268.466 86.5087C269.319 86.5087 269.979 86.8189 270.483 87.4394C270.967 88.0598 271.219 88.913 271.219 89.96V94.9236C271.219 95.4084 271.278 95.8155 271.394 96.1839C271.51 96.5523 271.646 96.8238 271.801 97.0177C271.956 97.2116 272.15 97.3667 272.383 97.483C272.615 97.5993 272.829 97.6769 273.023 97.6963C273.217 97.7351 273.43 97.7351 273.662 97.7351C273.973 97.7351 274.244 97.6963 274.457 97.6187V96.087C274.186 96.1452 274.031 96.1452 273.973 96.1452C273.624 96.1452 273.391 96.0482 273.275 95.8543C273.158 95.6604 273.1 95.3114 273.1 94.8073V89.5528C273.1 88.0986 272.732 86.9353 271.995 86.0627C271.258 85.1902 270.25 84.7637 268.97 84.7637C267.09 84.7637 265.771 85.5974 265.015 87.2843C264.356 85.5974 263.115 84.7637 261.292 84.7637C260.439 84.7637 259.722 84.977 259.101 85.4035C258.481 85.8301 258.015 86.4118 257.705 87.1292V84.9963H255.844V97.6963ZM282.516 91.3565C282.516 93.276 283.175 94.8853 284.474 96.165C285.792 97.4447 287.402 98.0846 289.282 98.0846C291.163 98.0846 292.772 97.4447 294.072 96.165C295.371 94.8853 296.03 93.276 296.03 91.3565C296.03 89.437 295.371 87.847 294.072 86.5674C292.753 85.2683 291.163 84.6284 289.282 84.6284C287.402 84.6284 285.792 85.2683 284.474 86.5674C283.175 87.847 282.516 89.437 282.516 91.3565ZM284.377 91.3371C284.377 89.9023 284.842 88.7196 285.773 87.7889C286.704 86.8388 287.886 86.3541 289.282 86.3541C290.678 86.3541 291.842 86.8194 292.772 87.7889C293.703 88.7002 294.169 89.9023 294.169 91.3371C294.169 92.7719 293.703 93.9741 292.772 94.9241C291.842 95.8548 290.678 96.3202 289.282 96.3202C287.886 96.3202 286.704 95.8548 285.773 94.9241C284.842 93.9741 284.377 92.7719 284.377 91.3371ZM300.194 97.6963H298.352V84.9963H300.213V87.1292C300.562 86.4118 301.066 85.8301 301.745 85.4035C302.423 84.977 303.218 84.7637 304.11 84.7637C304.265 84.7637 304.517 84.7637 304.886 84.8218V86.8383C304.517 86.7608 304.091 86.722 303.625 86.722C302.617 86.722 301.803 87.0516 301.163 87.7302C300.523 88.3895 300.194 89.262 300.194 90.309V97.6963ZM308.235 86.7418V94.1484H308.216C308.216 96.766 309.36 98.0845 311.628 98.0845C312.229 98.0845 312.695 98.0069 313.024 97.8712V96.2619C312.695 96.32 312.288 96.3394 311.842 96.3394C311.221 96.3394 310.775 96.1649 310.504 95.8353C310.232 95.5057 310.097 94.9434 310.097 94.1484V86.7418H313.044V85.0161H310.097V80.1494H308.235V85.0161H306.742V86.7418H308.235ZM320.824 84.6084C321.91 84.6084 322.841 84.8217 323.616 85.2289C324.392 85.636 324.954 86.1983 325.342 86.8769V84.9962H327.203V94.8459C327.203 95.4082 327.281 95.8154 327.416 96.0674C327.552 96.3195 327.804 96.4358 328.153 96.4358C328.289 96.4358 328.502 96.4358 328.812 96.3777V97.7737C328.463 97.9094 328.056 97.987 327.63 97.987C327.087 97.987 326.641 97.8707 326.292 97.638C325.807 97.2502 325.516 96.6297 325.439 95.8154C324.469 97.3084 322.938 98.0645 320.824 98.0645C319.002 98.0645 317.489 97.4247 316.268 96.145C315.027 94.8459 314.406 93.256 314.406 91.3365C314.406 89.4169 315.027 87.8464 316.268 86.5473C317.509 85.2482 319.04 84.6084 320.824 84.6084ZM320.824 96.3389C322.181 96.3389 323.306 95.8736 324.198 94.9429C325.109 93.9734 325.574 92.7907 325.574 91.3559C325.574 89.9211 325.109 88.7383 324.198 87.8076C323.306 86.8382 322.181 86.3728 320.824 86.3728C319.467 86.3728 318.439 86.8576 317.547 87.8076C316.694 88.7383 316.248 89.9211 316.248 91.3559C316.248 92.7907 316.675 93.9734 317.547 94.9429C318.439 95.8736 319.525 96.3389 320.824 96.3389ZM330.805 97.6956H332.666V95.7954C333.054 96.474 333.616 97.0363 334.392 97.4435C335.167 97.8507 336.098 98.064 337.184 98.064C338.987 98.064 340.519 97.4241 341.74 96.1444C342.981 94.8647 343.602 93.236 343.602 91.3359C343.602 89.4358 342.981 87.8264 341.74 86.5468C340.499 85.2477 338.987 84.6078 337.184 84.6078C336.098 84.6078 335.148 84.8017 334.392 85.2283C333.636 85.6548 333.054 86.1977 332.666 86.8764V80.1289H330.805V97.6956ZM340.441 94.9423C339.569 95.873 338.483 96.3383 337.184 96.3383C335.826 96.3383 334.683 95.873 333.771 94.9423C332.879 93.9728 332.433 92.7901 332.433 91.3553C332.433 89.9205 332.879 88.7377 333.771 87.8071C334.683 86.857 335.865 86.3722 337.184 86.3722C338.502 86.3722 339.569 86.8376 340.441 87.8071C341.314 88.7183 341.76 89.9205 341.76 91.3553C341.76 92.7901 341.314 93.9922 340.441 94.9423ZM345.953 94.4963V80.1289H347.814V94.3606C347.814 95.078 347.931 95.5821 348.163 95.873C348.396 96.1638 348.803 96.3189 349.385 96.3189C349.753 96.3189 350.063 96.3189 350.296 96.2608V97.8507C350.044 97.9864 349.656 98.064 349.133 98.064C348.377 98.064 347.679 97.8701 347.058 97.5017C346.709 97.2884 346.418 96.9006 346.224 96.3965C346.03 95.8924 345.914 95.2331 345.914 94.477L345.953 94.4963ZM351.305 91.3953V91.4922H351.324C351.324 93.4699 351.906 95.0598 353.089 96.2232C354.271 97.4253 355.822 98.0264 357.723 98.0264C359.797 98.0264 361.503 97.2702 362.861 95.7772L361.62 94.5751C361.038 95.215 360.476 95.6609 359.875 95.9324C359.274 96.2038 358.576 96.3395 357.723 96.3395C356.385 96.3395 355.299 95.9324 354.485 95.0986C353.651 94.2649 353.224 93.1597 353.166 91.7637H363.481C363.501 91.5893 363.501 91.3181 363.501 90.9502V90.9493C363.501 89.1849 362.958 87.6919 361.872 86.4704C360.786 85.2489 359.39 84.6284 357.664 84.6284C355.803 84.6284 354.291 85.2489 353.089 86.4898C351.906 87.7307 351.305 89.3594 351.305 91.3953ZM361.503 90.1156H353.282C353.36 89.0686 353.825 88.1767 354.659 87.4593C355.532 86.7031 356.52 86.3347 357.664 86.3347C358.692 86.3347 359.603 86.7225 360.379 87.4593C361.135 88.196 361.503 89.088 361.503 90.1156ZM365.278 97.5225C365.026 97.2705 364.891 96.9602 364.891 96.6112C364.891 96.2622 365.026 95.9714 365.278 95.7193C365.53 95.4673 365.821 95.3315 366.151 95.3315C366.481 95.3315 366.771 95.4673 367.023 95.7193C367.275 95.952 367.411 96.2622 367.411 96.6112C367.411 96.9602 367.275 97.2705 367.023 97.5225C366.771 97.7552 366.481 97.8715 366.151 97.8715C365.821 97.8715 365.53 97.7552 365.278 97.5225ZM395.2 82.7862C393.455 80.7891 391.225 79.8003 388.511 79.8003H388.491C385.951 79.8003 383.78 80.6728 381.977 82.4178C380.212 84.1435 379.32 86.2957 379.32 88.9132C379.32 91.5308 380.212 93.7024 381.977 95.4474C383.76 97.1731 385.932 98.0456 388.491 98.0456C391.245 98.0456 393.513 97.0179 395.278 94.9627L393.94 93.7606C392.563 95.4086 390.741 96.223 388.491 96.223C386.417 96.223 384.711 95.525 383.353 94.1483C381.996 92.7717 381.317 91.0073 381.317 88.9132C381.317 86.8192 381.996 85.0742 383.353 83.6975C384.711 82.3015 386.436 81.6035 388.491 81.6035C390.721 81.6035 392.505 82.3985 393.862 83.9884L395.2 82.7862ZM399.4 97.6963H397.539V84.9963H399.4V87.1292C399.749 86.4118 400.254 85.8301 400.932 85.4035C401.611 84.977 402.406 84.7637 403.317 84.7637C403.472 84.7637 403.724 84.7637 404.093 84.8218V86.8383C403.724 86.7608 403.298 86.722 402.832 86.722C401.824 86.722 401.01 87.0516 400.37 87.7302C399.73 88.4089 399.4 89.262 399.4 90.309V97.6963ZM414.147 85.2289C413.372 84.8217 412.441 84.6084 411.355 84.6084C409.572 84.6084 408.04 85.2482 406.799 86.5473C405.558 87.8464 404.938 89.4169 404.938 91.3365C404.938 93.256 405.558 94.8459 406.799 96.145C408.02 97.4247 409.533 98.0645 411.355 98.0645C413.469 98.0645 415 97.3084 415.97 95.8154C416.048 96.6297 416.338 97.2502 416.823 97.638C417.172 97.8707 417.618 97.987 418.161 97.987C418.588 97.987 418.995 97.9094 419.344 97.7737V96.3777C419.033 96.4358 418.82 96.4358 418.684 96.4358C418.335 96.4358 418.083 96.3195 417.948 96.0674C417.812 95.8154 417.734 95.4082 417.734 94.8459V84.9962H415.873V86.8769C415.485 86.1983 414.923 85.636 414.147 85.2289ZM414.729 94.9429C413.837 95.8736 412.713 96.3389 411.355 96.3389C410.056 96.3389 408.97 95.8736 408.079 94.9429C407.206 93.9734 406.779 92.7907 406.779 91.3559C406.779 89.9211 407.225 88.7383 408.079 87.8076C408.97 86.8576 409.998 86.3728 411.355 86.3728C412.713 86.3728 413.837 86.8382 414.729 87.8076C415.64 88.7383 416.106 89.9211 416.106 91.3559C416.106 92.7907 415.64 93.9734 414.729 94.9429ZM423.991 97.6963H422.13V86.722H420.094V84.9963H422.13V83.9299C422.13 82.3012 422.537 81.1379 423.371 80.4786C423.933 79.9939 424.786 79.7612 425.969 79.7612C426.376 79.7612 426.706 79.8 426.958 79.8582V81.6226C426.589 81.545 426.182 81.5063 425.755 81.5063C425.135 81.5063 424.689 81.6808 424.398 82.0104C424.107 82.34 423.991 82.9023 423.991 83.6972V85.0157H426.376V86.7414H423.991V97.6963ZM429.407 86.7418V94.1484H429.388C429.388 96.766 430.532 98.0845 432.8 98.0845C433.401 98.0845 433.886 98.0069 434.196 97.8712V96.2619C433.867 96.32 433.459 96.3394 433.013 96.3394C432.393 96.3394 431.947 96.1649 431.676 95.8353C431.404 95.5057 431.268 94.9434 431.268 94.1484V86.7418H434.216V85.0161H431.268V80.1494H429.407V85.0161H427.914V86.7418H429.407ZM435.57 91.4922V91.3953C435.57 89.3594 436.171 87.7307 437.354 86.4898C438.556 85.2489 440.069 84.6284 441.93 84.6284C443.656 84.6284 445.052 85.2489 446.137 86.4704C447.223 87.6919 447.766 89.1849 447.766 90.9493C447.766 91.3177 447.766 91.5892 447.747 91.7637H437.432C437.49 93.1597 437.916 94.2649 438.75 95.0986C439.564 95.9324 440.65 96.3395 441.988 96.3395C442.841 96.3395 443.539 96.2038 444.14 95.9324C444.741 95.6609 445.304 95.215 445.885 94.5751L447.126 95.7772C445.769 97.2702 444.063 98.0264 441.988 98.0264C440.088 98.0264 438.537 97.4253 437.354 96.2232C436.171 95.0598 435.59 93.4699 435.59 91.4922H435.57ZM437.548 90.1156H445.769C445.769 89.088 445.401 88.196 444.645 87.4593C443.869 86.7225 442.958 86.3347 441.93 86.3347C440.786 86.3347 439.797 86.7031 438.925 87.4593C438.091 88.1767 437.626 89.0686 437.548 90.1156ZM458.686 85.2283C457.911 84.8211 456.98 84.6078 455.894 84.6078C454.111 84.6078 452.579 85.2477 451.338 86.5468C450.097 87.8458 449.477 89.4164 449.477 91.3359C449.477 93.2554 450.097 94.8454 451.338 96.1444C452.559 97.4241 454.072 98.064 455.894 98.064C458.008 98.064 459.54 97.3078 460.509 95.8148C460.587 96.6292 460.877 97.2496 461.362 97.6374C461.711 97.8701 462.157 97.9864 462.7 97.9864C463.127 97.9864 463.534 97.9089 463.883 97.7731V96.3771C463.573 96.4353 463.359 96.4353 463.224 96.4353C462.875 96.4353 462.622 96.3189 462.487 96.0669C462.351 95.8148 462.273 95.4076 462.273 94.8453V80.1289H460.412V86.8764C460.024 86.1977 459.462 85.6355 458.686 85.2283ZM459.268 94.9423C458.376 95.873 457.252 96.3383 455.894 96.3383C454.595 96.3383 453.51 95.873 452.618 94.9423C451.745 93.9728 451.319 92.7901 451.319 91.3553C451.319 89.9205 451.764 88.7377 452.618 87.8071C453.51 86.857 454.537 86.3722 455.894 86.3722C457.252 86.3722 458.376 86.8376 459.268 87.8071C460.179 88.7377 460.645 89.9205 460.645 91.3553C460.645 92.7901 460.179 93.9728 459.268 94.9423ZM47.4689 24.8304C46.325 30.5114 41.3613 36.3476 35.9517 37.4334C39.5387 35.9404 42.5634 33.2647 44.386 29.9104C48.1863 23.8221 46.8678 13.5265 38.8795 11.9753C35.2149 11.0059 31.4534 12.4019 28.894 15.1939L28.7389 15.097C29.941 12.7121 32.1902 11.0446 34.769 10.3466C30.2707 1.46634 18.5402 2.28069 14.2164 10.7344C16.291 11.5488 18.0748 13.0805 19.0831 15.097L18.9086 15.1939C16.3492 12.4019 12.607 11.0059 8.92309 11.9753C0.934718 13.5652 -0.364362 23.8415 3.41654 29.9298C5.23913 33.2841 8.26385 35.9598 11.8509 37.4528L11.7927 37.6273C6.16981 35.7659 1.53578 30.7635 0.333651 24.8498C-1.0236 18.8197 1.76846 11.1222 8.55469 10.1721C10.4354 9.82311 12.4132 10.0364 14.1582 10.7538C15.8257 -0.356245 32.9658 -0.530747 35.0986 10.2885C36.417 9.97823 37.8518 9.92006 39.2091 10.1721C45.9953 11.1222 48.8068 18.8391 47.4301 24.8498L47.4689 24.8304ZM35.1897 37.8411C32.766 38.6361 29.2372 39.4892 24.9328 39.6055V54.1668H23.0714V39.5861C18.8639 39.4504 15.4126 38.6167 13.0859 37.8411C14.5595 37.4145 16.9832 36.5226 19.4456 34.6031C21.9468 32.6448 23.401 30.4538 24.1378 29.0772C24.8164 30.3956 26.1349 32.5478 28.5392 34.5255C31.1373 36.6196 33.7355 37.4533 35.1897 37.8411Z" fill="white"/>
</svg>
