<?xml version="1.0" standalone="no"?>
<!DOCTYPE svg PUBLIC "-//W3C//DTD SVG 1.1//EN" "http://www.w3.org/Graphics/SVG/1.1/DTD/svg11.dtd" >
<svg xmlns="http://www.w3.org/2000/svg" xmlns:xlink="http://www.w3.org/1999/xlink" version="1.1">
<metadata></metadata>
<defs>
<font id="brightgrotesk-boouploadedfile" horiz-adv-x="524" >
<font-face units-per-em="2048" ascent="1591" descent="-457" />
<missing-glyph horiz-adv-x="614" />
<glyph unicode="&#xfb01;" horiz-adv-x="1150" d="M-106 -287l24 142q38 -23 87 -11q50 12 61 70l178 1004h-154l27 147h153l23 129q33 180 160 281q128 102 340 102q204 0 317 -107l-94 -131q-109 91 -250 91q-267 0 -311 -248l-21 -117h625l-154 -868q-11 -58 40 -67t89 13l-26 -143q-31 -20 -109 -20q-90 0 -134 47 q-45 48 -30 131l133 760h-460l-187 -1047q-15 -85 -75 -131q-61 -47 -150 -47q-76 0 -102 20z" />
<glyph unicode="&#xfb02;" horiz-adv-x="1157" d="M-82 -287l25 142q38 -23 87 -11t60 70l178 1004h-153l26 147h154l20 117q15 76 49 143q36 71 90 126q56 57 145 92q87 34 202 34q112 1 188 -33q75 -34 106 -92q29 -55 40 -128q10 -66 -9 -142l-174 -994q-8 -41 19 -53q26 -12 63 6l15 -141q-43 -20 -129 -20 q-168 0 -140 165l183 1037q22 124 -32 186t-165 62q-108 0 -186 -63q-79 -64 -101 -185l-20 -117h309l-27 -147h-309l-186 -1047q-15 -85 -75 -131q-61 -47 -148 -47q-79 0 -105 20z" />
<glyph horiz-adv-x="0" />
<glyph unicode="&#xd;" horiz-adv-x="681" />
<glyph unicode=" "  horiz-adv-x="614" />
<glyph unicode="&#x09;" horiz-adv-x="614" />
<glyph unicode="&#xa0;" horiz-adv-x="614" />
<glyph unicode="!" horiz-adv-x="450" d="M70 37l20 117h143l-20 -117h-143zM199 645l69 522h146l-115 -522h-100z" />
<glyph unicode="&#x22;" horiz-adv-x="622" d="M156 942l106 614h170l-172 -614h-104zM473 942l107 614h170l-172 -614h-105z" />
<glyph unicode="#" horiz-adv-x="1441" d="M78 408l22 133h281l123 356h-256l24 133h279l139 404h146l-140 -404h283l141 404h150l-142 -404h256l-24 -133h-277l-125 -356h254l-22 -133h-279l-141 -408h-149l141 408h-281l-141 -408h-147l141 408h-256zM526 541h283l125 356h-285z" />
<glyph unicode="$" horiz-adv-x="1169" d="M33 475l157 60q-15 -170 54 -274q68 -102 196 -126l95 531q-91 24 -155 51q-66 28 -126 70q-61 43 -86 111q-25 67 -8 153q29 164 171 278q143 115 341 125l18 102h133l-18 -110q172 -27 257 -151q85 -123 62 -302l-157 -53q33 297 -191 354l-88 -506q93 -24 152 -49 q68 -29 121 -71q56 -44 79 -113q23 -70 7 -158q-30 -170 -170 -285q-139 -113 -330 -130l-19 -105h-133l19 107q-198 23 -302 158q-106 138 -79 333zM326 1061q-18 -102 43 -154q63 -54 192 -88l86 488q-125 -7 -216 -75q-89 -66 -105 -171zM573 133q119 15 204 85t106 175 q17 101 -41 155q-57 54 -181 87z" />
<glyph unicode="%" horiz-adv-x="1503" d="M90 1104q27 150 139 250t260 100q151 0 227 -99q77 -100 50 -251q-27 -154 -138 -254q-110 -100 -261 -100q-148 0 -226 100q-78 101 -51 254zM125 0l1122 1434h133l-1122 -1434h-133zM209 1104q-18 -107 28 -173q47 -67 150 -67q102 0 173 68t87 172q18 102 -29 170 q-46 67 -149 67t-172 -66q-70 -67 -88 -171zM737 332q27 149 141 250q113 100 259 100q150 0 226 -100q77 -101 50 -250q-27 -152 -138 -252q-110 -100 -261 -100q-148 0 -226 100t-51 252zM856 332q-18 -102 29 -170t149 -68t173 68t89 170q18 104 -29 170q-48 67 -151 67 q-101 0 -172 -67t-88 -170z" />
<glyph unicode="&#x26;" horiz-adv-x="1443" d="M23 453q21 144 113 246q93 104 241 155q-162 91 -133 283q23 137 141 227t293 90q144 0 232 -77q89 -78 96 -203l-152 -54q0 85 -49 143t-148 58q-100 0 -169 -56q-70 -57 -82 -145t49 -153q61 -66 215 -66l-27 -119q-187 0 -311 -89t-146 -240q-24 -157 79 -248 q104 -92 276 -92q159 0 269 73q111 73 132 183q15 89 -49 133q-62 43 -152 43h-123l54 133h442q201 0 219 145q8 62 -25 95q-34 34 -89 34q-84 0 -129 -63l-58 76q18 39 76 81q55 39 147 39q115 0 178 -78q65 -80 50 -194q-18 -136 -120 -202t-263 -66h-37q58 -69 43 -168 q-24 -161 -193 -280q-166 -117 -395 -117q-248 0 -390 121q-143 122 -105 352z" />
<glyph unicode="'" horiz-adv-x="305" d="M156 942l106 614h170l-172 -614h-104z" />
<glyph unicode="(" horiz-adv-x="626" d="M162 635q95 535 530 921l99 -88q-396 -349 -480 -833q-86 -478 187 -836l-129 -86q-301 385 -207 922z" />
<glyph unicode=")" horiz-adv-x="628" d="M-147 -201q395 353 481 836q84 484 -187 833l129 88q301 -385 207 -921q-95 -536 -530 -922z" />
<glyph unicode="*" horiz-adv-x="960" d="M170 973q136 72 322 141q-157 70 -273 143l72 95q90 -57 239 -185q5 187 31 328h113q-23 -135 -86 -328q185 123 305 185l35 -95q-133 -70 -320 -143q160 -69 271 -141l-70 -94q-101 63 -240 186q-7 -200 -30 -328h-113q23 129 86 328q-165 -115 -305 -186z" />
<glyph unicode="+" horiz-adv-x="1236" d="M82 571l24 131h459l82 465h133l-82 -465h457l-25 -131h-456l-82 -469h-133l82 469h-459z" />
<glyph unicode="," horiz-adv-x="493" d="M39 -162q98 37 119 162h-101l37 215h205l-37 -215q-35 -192 -194 -242z" />
<glyph unicode="-" horiz-adv-x="776" d="M139 561l27 148h471l-27 -148h-471z" />
<glyph unicode="." horiz-adv-x="552" d="M94 0l41 221h205l-41 -221h-205z" />
<glyph unicode="/" horiz-adv-x="868" d="M-174 -287l997 1843h150l-1000 -1843h-147z" />
<glyph unicode="0" horiz-adv-x="1349" d="M127 717q63 353 238 546q173 191 438 191q267 0 376 -191t46 -546q-63 -352 -240 -546q-175 -191 -440 -191q-266 0 -373 191q-108 192 -45 546zM291 717q-53 -300 13 -444t265 -144q201 0 319 144t171 444q52 300 -14 445t-267 145q-197 0 -316 -146 q-118 -145 -171 -444z" />
<glyph unicode="1" horiz-adv-x="612" d="M86 1053l35 196l287 185h163l-254 -1434h-163l219 1237z" />
<glyph unicode="2" horiz-adv-x="1138" d="M-41 0l29 156q431 248 655 450q227 205 260 393q24 146 -36 227t-201 81q-130 0 -235 -84q-106 -85 -152 -211l-136 65q61 160 206 268q146 109 343 109q204 0 308 -125t67 -330q-37 -204 -237 -410q-199 -205 -568 -433h674l-29 -156h-948z" />
<glyph unicode="3" horiz-adv-x="1155" d="M20 340l152 63q30 -274 295 -274q133 0 236 71q101 70 122 189q23 129 -75 193.5t-318 64.5l6 31h-2l21 119q414 0 463 272q17 92 -41 165t-191 73q-132 0 -237 -87q-104 -86 -148 -210l-133 67q52 147 198 262q145 115 345 115q199 0 299 -115q98 -113 71 -270 q-46 -256 -315 -346q266 -84 221 -334q-33 -191 -193 -300t-354 -109q-184 0 -297 94q-115 95 -125 266z" />
<glyph unicode="4" horiz-adv-x="1234" d="M41 383l27 147l862 904h164l-160 -904h207l-25 -147h-209l-67 -383h-164l67 383h-702zM270 530h500l115 646z" />
<glyph unicode="5" horiz-adv-x="1153" d="M41 352l156 56q-6 -104 65 -191q72 -88 217 -88q144 0 253 103t136 255q29 152 -48 248q-76 96 -230 96q-129 0 -219 -62q-94 -65 -133 -138l-134 16l222 787h786l-27 -148h-653l-110 -391q137 86 311 86q230 0 333 -143q104 -144 66 -351q-34 -207 -198 -357t-381 -150 q-115 0 -197 35q-84 36 -128 95q-45 60 -65 118t-22 124z" />
<glyph unicode="6" horiz-adv-x="1218" d="M127 731q34 201 113 351q80 151 176 226q100 77 194 111q97 35 195 35q96 0 169 -29t112 -74q41 -47 61 -86t31 -85l-138 -50q-57 183 -260 183q-78 0 -154 -29q-75 -28 -149 -92q-75 -64 -131 -181q-58 -120 -86 -280q0 -4 -2 -6q80 109 198 173q119 65 244 65 q200 0 308 -144q107 -143 73 -350q-37 -205 -196 -347q-158 -142 -359 -142q-243 0 -353 185q-112 187 -46 566zM299 469q-27 -149 47 -249q74 -99 207 -99t244 99q110 98 137 249q27 154 -48 253t-210 99t-243 -99q-107 -98 -134 -253z" />
<glyph unicode="7" horiz-adv-x="1085" d="M102 1286l27 148h936l-27 -148q-258 -254 -426 -597q-167 -342 -229 -689h-164q61 346 228 690t425 596h-770z" />
<glyph unicode="8" horiz-adv-x="1107" d="M49 408q21 118 107 222t211 161q-77 46 -112 127q-34 78 -17 176q27 156 154 258t310 102q182 0 273 -102q92 -102 65 -258q-17 -99 -78 -176q-64 -81 -155 -127q106 -56 155 -159q50 -104 29 -224q-35 -192 -189 -310t-358 -118q-202 0 -316 118t-79 310zM217 432 q-23 -129 51 -216t201 -87q129 0 234 87q106 87 128 216q21 119 -48 208t-208 89q-138 0 -238 -89q-99 -88 -120 -208zM399 1081q-18 -97 38 -162q58 -67 159 -67t182 67q80 66 96 162q17 101 -36 164q-53 64 -160 64q-105 0 -184 -65t-95 -163z" />
<glyph unicode="9" horiz-adv-x="1177" d="M41 254l137 51q52 -184 258 -184q79 0 155 29q72 27 149 92q75 63 132 181q58 121 86 279q0 4 3 7q-80 -109 -198 -173q-119 -65 -245 -65q-200 0 -307 143q-108 145 -74 351q37 205 196 347q158 142 357 142h6q241 0 351 -185q111 -186 45 -567q-34 -201 -113 -351 q-78 -149 -177 -225q-101 -78 -196 -112t-194 -34q-98 0 -169 28q-73 29 -112 75q-38 45 -59 86q-20 39 -31 85zM285 965q-27 -154 49 -253q77 -100 209 -100t241 100t136 253q26 149 -48 249q-74 99 -206 99q-133 0 -244 -99q-110 -98 -137 -249z" />
<glyph unicode=":" horiz-adv-x="573" d="M94 0l39 225h205l-39 -225h-205zM244 840l39 225h204l-38 -225h-205z" />
<glyph unicode=";" horiz-adv-x="514" d="M39 -162q101 38 117 162h-101l39 215h205l-39 -215q-35 -196 -192 -242zM201 856l35 209h204l-34 -209h-205z" />
<glyph unicode="&#x3c;" horiz-adv-x="849" d="M119 635l592 504l77 -92l-483 -412l338 -410l-108 -94z" />
<glyph unicode="=" horiz-adv-x="1345" d="M82 346l22 131h1080l-23 -131h-1079zM160 795l24 133h1080l-25 -133h-1079z" />
<glyph unicode="&#x3e;" horiz-adv-x="849" d="M66 225l483 410l-336 412l106 92l416 -504l-592 -504z" />
<glyph unicode="?" horiz-adv-x="980" d="M129 1100q73 177 207 265q136 89 313 89q181 0 277 -116q95 -114 65 -283q-21 -122 -79 -204q-61 -87 -164 -169q-5 -5 -27 -22t-39 -30q-44 -36 -70 -58q-27 -23 -54 -53q-33 -36 -49 -67q-18 -35 -24 -71h-163q11 60 29 103q19 45 56 87q45 51 59 63q23 20 79 64 q52 41 73 60q98 82 144 140q50 63 65 155q21 114 -44 184t-173 70q-241 0 -342 -263zM256 0l37 205h164l-37 -205h-164z" />
<glyph unicode="@" horiz-adv-x="1980" d="M92 532q0 414 254 668t676 254q404 0 636 -215q230 -214 230 -600q0 -271 -152 -432q-153 -162 -380 -162q-199 0 -217 152q-107 -156 -324 -156q-172 0 -255 131t-44 348q44 244 177 376t335 132q86 0 141 -37q56 -38 78 -94l21 115h164l-125 -711q-11 -57 15 -87 t77 -30q119 0 221 124t102 327q0 319 -187 494q-188 176 -521 176q-340 0 -545 -211t-205 -559q0 -373 222 -573q223 -200 595 -200q247 0 422 72l41 -147q-216 -76 -463 -76q-457 0 -723 237t-266 684zM676 522q-29 -160 29 -249q57 -89 178 -89q95 0 172 57q75 56 102 142 l57 317q2 81 -52 133q-53 52 -148 52q-127 0 -217 -92q-91 -93 -121 -271z" />
<glyph unicode="A" horiz-adv-x="1275" d="M-47 0l768 1434h170l258 -1434h-166l-74 412h-571l-219 -412h-166zM410 545h475l-119 665z" />
<glyph unicode="B" horiz-adv-x="1296" d="M78 0l254 1434h547q180 0 282 -99q78 -76 78 -202q0 -40 -8 -86q-39 -225 -279 -304q232 -72 232 -275q0 -34 -6 -71q-30 -180 -167 -288q-138 -109 -311 -109h-622zM266 133h400q132 0 229 70q96 69 119 194q6 36 6 67q0 91 -52 143q-71 71 -206 71h-399zM385 811h356 q120 0 212 58q93 58 114 178q5 32 5 60q0 88 -53 134q-69 59 -192 59h-356z" />
<glyph unicode="C" horiz-adv-x="1378" d="M119 717q40 329 241 533t494 204q454 0 516 -455l-162 -38q-12 154 -112 249q-102 97 -260 97q-199 0 -359 -157q-159 -156 -194 -433q-7 -59 -7 -113q0 -196 94 -319q120 -158 318 -158q160 0 285 96t176 250l151 -39q-168 -454 -626 -454q-294 0 -445 203 q-119 160 -119 398q0 65 9 136z" />
<glyph unicode="D" horiz-adv-x="1384" d="M78 0l254 1434h459q281 0 421 -187q101 -134 100 -330q0 -75 -14 -159l-16 -82q-53 -304 -258 -490q-206 -186 -487 -186h-459zM268 150h277q234 0 380 145t193 381l17 82q11 66 11 125q0 147 -69 251q-96 144 -332 152h-276z" />
<glyph unicode="E" horiz-adv-x="1226" d="M78 0l254 1434h923l-26 -148h-760l-84 -475h670l-27 -147h-670l-90 -514h760l-27 -150h-923z" />
<glyph unicode="F" horiz-adv-x="1200" d="M78 0l254 1434h923l-28 -156h-758l-84 -467h670l-27 -147h-670l-116 -664h-164z" />
<glyph unicode="G" horiz-adv-x="1464" d="M119 717q40 329 241 533t494 204q454 0 516 -455l-162 -38q-12 154 -112 249q-102 97 -260 97q-199 0 -359 -157q-159 -156 -194 -433q-7 -59 -7 -113q0 -196 94 -319q120 -158 318 -158q174 0 302 110q128 109 165 279l2 23h-364l18 149h522l-12 -94l-76 -594h-125 l15 207q-167 -227 -461 -227t-445 203q-119 160 -119 398q0 65 9 136z" />
<glyph unicode="H" horiz-adv-x="1435" d="M78 0l254 1434h164l-111 -621h748l110 621h164l-254 -1434h-164l119 666h-748l-118 -666h-164z" />
<glyph unicode="I" d="M78 0l254 1434h164l-254 -1434h-164z" />
<glyph unicode="J" horiz-adv-x="1132" d="M-31 444l164 62q-2 -28 -2 -54q0 -133 51 -220q62 -105 213 -105q165 0 267 128t131 292l157 887h164l-158 -887q-18 -107 -60 -203q-42 -95 -111 -181q-70 -86 -176 -135q-111 -51 -240 -51q-121 0 -207 42q-85 42 -128 112q-43 71 -58 149q-10 50 -10 105q0 29 3 59z " />
<glyph unicode="K" horiz-adv-x="1288" d="M78 0l254 1434h164l-121 -682h71l719 682h201l-793 -752l545 -682h-200l-484 604h-86l-106 -604h-164z" />
<glyph unicode="L" horiz-adv-x="1024" d="M78 0l254 1434h164l-228 -1284h645l-26 -150h-809z" />
<glyph unicode="M" horiz-adv-x="1712" d="M78 0l254 1434h164l292 -1235l732 1235h163l-253 -1434h-164l184 1038l-614 -1038h-164l-246 1038l-184 -1038h-164z" />
<glyph unicode="N" horiz-adv-x="1484" d="M78 0l254 1434h166l583 -1188l211 1188h164l-254 -1434h-166l-583 1188l-211 -1188h-164z" />
<glyph unicode="O" horiz-adv-x="1486" d="M119 717q40 326 243 532q202 205 492 205q288 0 441 -205q121 -162 120 -399q0 -64 -8 -133q-40 -328 -243 -534q-200 -203 -490 -203q-292 0 -444 203q-120 159 -120 399q0 64 9 135zM268 717q-6 -51 -6 -99q0 -187 93 -324q119 -173 335 -173q219 0 378 172 q159 173 189 424q6 52 6 100q0 185 -91 322q-115 172 -334 172q-217 0 -378 -173q-162 -174 -192 -421z" />
<glyph unicode="P" horiz-adv-x="1226" d="M78 0l254 1434h565q168 0 263 -131q71 -98 71 -227q0 -44 -8 -93q-33 -185 -172 -306q-140 -122 -310 -122h-401l-98 -555h-164zM367 705h342q139 0 232 72q94 73 118 206q6 41 6 76q0 95 -47 150q-66 77 -207 77h-342z" />
<glyph unicode="Q" horiz-adv-x="1497" d="M129 717q40 325 243 532q201 205 490 205q290 0 443 -205q121 -162 121 -399q0 -64 -9 -133q-50 -389 -313 -594q38 3 72 3q151 0 215 -65l-80 -147q-71 52 -155 73q-83 20 -133 20h-5q-71 -2 -157 -12q-97 -11 -138 -13q-20 -2 -43 -2q-289 0 -440 203 q-120 161 -120 399q0 65 9 135zM279 717q-7 -54 -7 -105q0 -183 93 -318q119 -173 335 -173q219 0 378 172q160 174 190 424q6 52 6 100q0 186 -92 322q-117 172 -336 172q-218 0 -377 -172q-160 -174 -190 -422z" />
<glyph unicode="R" horiz-adv-x="1329" d="M78 0l254 1434h596q170 0 266 -122q71 -91 71 -217q0 -43 -8 -91q-24 -136 -107 -231q-82 -94 -202 -138q144 -54 144 -252q0 -22 -2 -47q-3 -44 -4 -84q0 -173 65 -252h-180q-22 32 -37 114q-9 46 -9 103q0 42 5 90q2 25 2 48q0 105 -45 170q-55 81 -189 81h-350 l-106 -606h-164zM375 756h373q302 0 346 248q6 38 6 70q0 212 -258 212h-373z" />
<glyph unicode="S" horiz-adv-x="1187" d="M41 475l156 60q-1 -22 -1 -42q0 -167 87 -260q98 -104 268 -104q161 0 271 81q111 82 112 206v14q0 85 -67 131q-71 49 -216 82q-80 19 -143 36q-47 13 -132 46q-74 29 -120 67q-44 36 -75 93q-29 52 -29 120v9q5 183 162 311q159 129 395 129q226 0 348 -129 q103 -110 103 -274q0 -28 -3 -58l-156 -53q2 28 2 54q0 144 -75 221q-90 92 -248 92q-140 0 -243 -68q-102 -67 -118 -178q-2 -16 -2 -30q0 -33 12 -61q18 -41 46 -66q29 -26 87 -48q55 -21 103 -34q17 -5 125 -29q89 -20 167 -49q68 -25 134 -70q65 -45 93 -115 q19 -48 19 -103q0 -28 -5 -59q-28 -184 -191 -301q-161 -116 -379 -116q-239 0 -374 139q-116 120 -116 297q0 29 3 59z" />
<glyph unicode="T" horiz-adv-x="1189" d="M139 1286l27 148h1106l-27 -148h-471l-227 -1286h-164l227 1286h-471z" />
<glyph unicode="U" horiz-adv-x="1431" d="M135 549l158 885h164l-150 -842q-12 -68 -12 -126q0 -135 64 -212q91 -111 270 -111q177 0 307 109q129 108 174 340l150 842h163l-157 -885q-46 -268 -229 -419q-181 -150 -437 -150t-384 150q-94 110 -94 283q0 64 13 136z" />
<glyph unicode="V" horiz-adv-x="1316" d="M158 1434h166l245 -1217l676 1217h164l-797 -1434h-166z" />
<glyph unicode="W" horiz-adv-x="1839" d="M197 1434h163l101 -1158l516 1158h149l107 -1153l510 1153h166l-649 -1434h-150l-106 1159l-519 -1159h-149z" />
<glyph unicode="X" horiz-adv-x="1351" d="M-49 0l635 717l-381 717h186l311 -584l519 584h188l-635 -717l381 -717h-188l-312 584l-518 -584h-186z" />
<glyph unicode="Y" horiz-adv-x="1335" d="M166 1434h164l327 -744h2l592 744h166l-700 -881l-99 -553h-163l98 553z" />
<glyph unicode="Z" horiz-adv-x="1200" d="M2 0l27 150l991 1136h-772l26 148h957l-27 -148l-997 -1136h799l-27 -150h-977z" />
<glyph unicode="[" horiz-adv-x="602" d="M35 -287l323 1843h385l-20 -122h-238l-280 -1598h237l-22 -123h-385z" />
<glyph unicode="\" horiz-adv-x="802" d="M197 1556h149l350 -1843h-149z" />
<glyph unicode="]" horiz-adv-x="602" d="M-143 -287l22 133h238l276 1577h-235l22 133h385l-323 -1843h-385z" />
<glyph unicode="^" horiz-adv-x="1105" d="M176 840l537 716h164l282 -716h-164l-225 573l-430 -573h-164z" />
<glyph unicode="_" horiz-adv-x="1105" d="M-6 -190l26 149h900l-25 -149h-901z" />
<glyph unicode="`" horiz-adv-x="616" d="M164 1493l141 23q39 -140 148 -275l-66 -53q-81 56 -143 138q-64 83 -80 167z" />
<glyph unicode="a" horiz-adv-x="1171" d="M59 535q39 224 192 388q152 162 361 162q186 0 277 -135l20 115h162l-151 -868q-6 -39 15 -57q19 -17 50 -15q27 1 57 14l-22 -139q-31 -20 -109 -20q-81 0 -123 35q-43 36 -43 104q-139 -139 -327 -139q-143 0 -234 79q-92 80 -122 205q-16 66 -16 137q0 65 13 134z M223 535q-12 -62 -12 -117q0 -98 38 -173q59 -116 216 -116q170 0 303 133l96 545q-88 133 -256 133q-158 0 -257 -117q-100 -118 -128 -288z" />
<glyph unicode="b" horiz-adv-x="1193" d="M33 74q42 38 68 88q27 53 34 81q11 45 25 128q1 4 3 10q1 2 1.5 5t0.5 5q1 4 1 10l133 762q27 148 27 238q0 35 -4 61l155 33q13 -33 16 -68v-13q0 -30 -6 -90q-3 -22 -13 -99q-3 -21 -23 -135l-25 -140q140 135 324 135q142 0 233 -79q93 -81 123 -204q16 -68 16 -139 q0 -62 -12 -128q-39 -230 -191 -392q-153 -163 -364 -163q-199 0 -289 157q-46 -105 -127 -157zM305 266q84 -137 256 -137q159 0 257 116t128 290q11 62 11 117q0 100 -36 172q-57 116 -216 116q-172 0 -306 -137l-86 -496q-1 -3 -2.5 -9.5t-2.5 -11.5q-3 -14 -3 -20z" />
<glyph unicode="c" horiz-adv-x="1075" d="M84 532q30 241 185 398q154 155 382 155q305 0 387 -309l-157 -51q-52 213 -248 213q-155 0 -259 -112q-104 -111 -126 -294q-5 -44 -5 -84q0 -126 53 -209q71 -110 224 -110q206 0 311 207l146 -49q-69 -139 -193 -224q-122 -83 -282 -83q-227 0 -337 155 q-87 123 -87 298q0 48 6 99z" />
<glyph unicode="d" horiz-adv-x="1183" d="M96 535q39 224 192 388q152 162 363 162q184 0 275 -133l37 211q28 149 28 235q0 39 -6 64l156 33q12 -27 15 -62q1 -9 1 -21q0 -32 -6 -83q-2 -20 -4.5 -39.5t-5 -38t-3.5 -25.5t-24 -136l-158 -893q-2 -10 -2 -19q0 -41 42 -48q15 -3 29 -3q34 0 60 16l-24 -143 q-33 -20 -111 -20q-82 0 -124 35q-44 36 -44 104q-139 -139 -325 -139q-211 0 -305 163q-67 116 -67 265q0 61 11 127zM260 535q-10 -60 -10 -113q0 -101 37 -177q57 -116 215 -116q170 0 303 133l96 545q-88 133 -256 133q-157 0 -256 -117t-129 -288z" />
<glyph unicode="e" horiz-adv-x="1191" d="M78 467q0 261 180 440q179 178 444 178q207 0 320 -89t113 -242q0 -54 -24 -111t-87 -117q-61 -58 -160 -95q-94 -35 -250 -35h-9q-158 1 -365 55q6 -159 107 -248q102 -90 251 -90q240 0 385 192l102 -88q-73 -111 -204 -174t-295 -63q-221 0 -365 135 q-143 134 -143 352zM252 584q168 -46 294 -55q41 -3 77 -3q76 0 130 13q76 18 128 56q50 37 70 78q20 42 20 81q0 84 -63 141t-206 57q-166 0 -290 -103q-126 -105 -160 -265z" />
<glyph unicode="f" horiz-adv-x="739" d="M-82 -287l25 142q25 -15 55 -15q15 0 32 4q49 12 60 70l16 86l164 918h-155l26 147h156l14 84q27 156 124 250t263 94q160 0 242 -82l-94 -125q-69 60 -160 60q-178 0 -211 -191l-16 -90h309l-45 -147h-291l-162 -918l-24 -129q-15 -85 -75 -131q-61 -47 -148 -47 q-79 0 -105 20z" />
<glyph unicode="g" horiz-adv-x="1146" d="M-18 -98q12 147 161 235q-58 48 -58 124q0 8 1 15q12 102 123 154q-105 95 -105 241q0 19 2 38q15 172 153 274t312 102q157 0 267 -81q68 81 196 81q103 0 154 -38l-76 -138q-39 45 -104 45q-55 0 -93 -34q53 -75 53 -182q0 -14 -1 -29q-18 -176 -155 -280 q-136 -103 -308 -103q-101 0 -178 32q-74 -23 -74 -72q0 -29 33 -49q37 -22 99 -34q68 -13 159 -17q98 -5 148 -10q61 -6 128 -24q66 -18 107 -49q39 -30 62 -81q19 -42 19 -96q0 -14 -1 -28q-12 -131 -156 -230q-143 -98 -385 -98q-225 0 -362 92q-122 82 -122 211 q0 14 1 29zM147 -84q-1 -10 -1 -19q0 -79 83 -134q91 -60 252 -60q148 0 251 50t110 138v11q0 95 -133 123q-64 16 -277 28q-81 6 -158 23q-53 -24 -89 -68q-37 -44 -38 -92zM270 709q-1 -15 -1 -28q0 -93 58 -154q65 -68 187 -68q120 0 199 70t90 180q1 14 1 27 q0 90 -59 149q-67 67 -186 67q-122 0 -200 -68t-89 -175z" />
<glyph unicode="h" horiz-adv-x="1198" d="M68 0l204 1163q25 151 25 239q0 35 -4 60l158 33q10 -28 13 -70q1 -12 1 -26q0 -32 -5 -74q-4 -34 -14 -103q-8 -54 -22 -132l-31 -172q177 167 418 167q275 0 275 -278q0 -60 -13 -133l-84 -477q-2 -10 -2 -19q0 -40 41 -48q15 -3 28 -3q33 0 60 16l-24 -143 q-31 -20 -111 -20q-88 0 -132 47q-34 36 -34 92q0 19 4 39l88 501q10 91 11 129v5q0 59 -42 101q-44 44 -135 44q-100 0 -202 -45t-170 -113l-138 -780h-163z" />
<glyph unicode="i" horiz-adv-x="512" d="M82 158l160 907h164l-154 -868q-2 -10 -2 -19q0 -41 42 -48q15 -3 29 -3q34 0 60 16l-27 -143q-31 -20 -108 -20q-90 0 -134 47q-34 36 -34 92q0 18 4 39zM281 1290l36 205h164l-37 -205h-163z" />
<glyph unicode="j" horiz-adv-x="452" d="M-164 -309q161 30 191 194l209 1180h163l-204 -1165q-50 -271 -345 -310zM274 1290l37 205h164l-37 -205h-164z" />
<glyph unicode="k" horiz-adv-x="1122" d="M72 0l204 1163q26 137 26 227q0 40 -5 72l158 33q10 -28 13 -68q1 -10 1 -22q0 -32 -6 -81q-2 -22 -13 -99q-1 -10 -4.5 -27.5t-9 -49.5t-10.5 -58l-80 -459h88l481 434h218l-570 -518l281 -365q32 -44 60 -61t77 -17h57l-20 -122h-66q-99 0 -143 19q-45 20 -98 89 l-297 389h-95l-83 -479h-164z" />
<glyph unicode="l" horiz-adv-x="501" d="M106 158l177 1005q26 150 26 233q0 41 -6 66l158 33q12 -27 15 -62q1 -9 1 -21q0 -32 -6 -83q-2 -20 -4.5 -39.5t-5 -38t-3.5 -25.5t-24 -136l-158 -893q-2 -10 -2 -19q0 -41 42 -48q15 -3 29 -3q34 0 61 16l-27 -143q-31 -20 -109 -20q-90 0 -135 47q-33 35 -33 89 q0 20 4 42z" />
<glyph unicode="m" horiz-adv-x="1787" d="M78 0l155 868q2 10 2 19q0 40 -41 48q-15 3 -29 3q-34 0 -61 -16l25 143q33 20 111 20q83 0 129 -41q38 -34 38 -92q0 -10 -1 -22q165 155 354 155q225 0 258 -196q178 195 391 196q263 0 263 -269q0 -61 -13 -136l-86 -483q-6 -39 15 -57q19 -17 50 -15q28 1 58 14 l-21 -139q-33 -20 -110 -20q-90 0 -133 46q-33 35 -33 91q0 19 4 41l90 506q8 75 11 128v8q0 55 -39 95q-42 43 -128 43q-69 0 -160 -42q-92 -42 -155 -108q-4 -57 -12 -108l-121 -680h-164l119 664q8 75 11 128v8q0 54 -38 95q-40 43 -127 43q-67 0 -154 -39 q-90 -40 -151 -100l-143 -799h-164z" />
<glyph unicode="n" horiz-adv-x="1206" d="M78 0l155 868q2 10 2 19q0 40 -41 48q-15 3 -29 3q-34 0 -61 -16l25 143q33 20 111 20q86 0 130 -42q37 -36 37 -97q0 -10 -1 -20q179 159 415 159q269 0 269 -271q0 -60 -13 -134l-88 -483q-6 -38 16 -57q19 -17 50 -15q27 1 57 14l-20 -139q-33 -20 -111 -20 q-88 0 -132 47q-34 36 -34 92q0 19 4 39l92 506q10 92 12 128v7q0 54 -41 96q-43 43 -134 43q-97 0 -196 -39q-101 -40 -169 -102l-141 -797h-164z" />
<glyph unicode="o" horiz-adv-x="1196" d="M82 532q21 239 169 396t396 157q245 0 366 -157q105 -137 105 -335q0 -30 -2 -61q-21 -239 -170 -395q-150 -157 -395 -157q-248 0 -369 157q-103 134 -103 326q0 34 3 69zM240 532q-3 -29 -2 -56q0 -145 71 -240q86 -113 254 -113q169 0 274 113q105 112 121 296 q3 31 3 60q0 144 -71 238q-86 114 -253 114t-274 -114t-123 -298z" />
<glyph unicode="p" horiz-adv-x="1181" d="M6 -410l225 1278q6 39 -15 57q-19 17 -50 15q-27 -1 -57 -14l20 139q33 20 111 20q79 0 121 -35q45 -37 45 -102q142 137 325 137q212 0 306 -163q67 -116 67 -262q0 -61 -12 -128q-39 -226 -192 -389t-363 -163q-185 0 -277 135l-92 -525h-162zM287 262 q85 -133 256 -133q159 0 257 116q98 117 128 287q12 62 12 117q0 99 -38 173q-59 116 -218 116q-168 0 -301 -133z" />
<glyph unicode="q" horiz-adv-x="1280" d="M90 532q39 227 192 390t363 163q188 0 279 -139q46 139 215 139q76 0 102 -20l-24 -143q-21 16 -55 16q-13 0 -29 -3q-53 -9 -64 -67l-223 -1278h-164l92 527q-142 -137 -323 -137q-211 0 -305 162q-67 116 -67 264q0 60 11 126zM254 532q-10 -59 -10 -112 q0 -100 37 -175q57 -116 215 -116q174 0 305 135l94 539q-84 135 -258 135q-157 0 -255 -116t-128 -290z" />
<glyph unicode="r" horiz-adv-x="854" d="M92 0l154 868q2 10 2 19q0 41 -42 48q-15 3 -29 3q-34 0 -60 -16l24 143q33 20 111 20q82 0 124 -35q44 -36 44 -104q135 139 309 139q119 0 168 -49l-100 -147q-45 49 -133 49q-113 0 -185 -66q-71 -65 -98 -161l-125 -711h-164z" />
<glyph unicode="s" horiz-adv-x="980" d="M33 293l147 53q16 -105 94 -169q77 -64 193 -64q99 0 168 45t84 123q2 15 2 29q0 56 -39 83q-52 36 -166 70q-14 4 -41 12q-68 21 -118 39q-47 16 -99 45q-55 30 -81 59q-28 31 -43 78q-10 30 -10 66q0 19 3 39q21 127 142 206q119 78 288 78q166 0 269 -91 q104 -92 104 -203l-148 -50q-6 77 -72 144t-175 67q-101 0 -166 -46q-66 -46 -76 -113q-5 -28 3 -49q7 -20 29 -39q19 -16 40 -32q18 -13 56 -27q11 -4 22 -7.5t22.5 -7.5t15.5 -5q28 -9 68 -20q43 -12 61 -18q170 -56 226 -127q50 -62 50 -148q0 -27 -5 -57 q-17 -115 -132 -196q-114 -80 -303 -80q-180 0 -289 93t-124 220z" />
<glyph unicode="t" horiz-adv-x="692" d="M74 932l24 133h160l47 272l170 35l-53 -307h289l-43 -133h-271l-116 -674q-4 -23 -5 -43q0 -104 121 -104q70 0 113 14l-4 -125q-63 -20 -176 -20q-130 0 -186 65q-40 45 -40 121q0 31 7 67l122 699h-159z" />
<glyph unicode="u" horiz-adv-x="1241" d="M98 922l25 143q33 20 110 20q91 0 135 -47q33 -35 33 -91q0 -19 -4 -40l-90 -516q-10 -87 -10 -127q0 -56 41 -95q43 -40 133 -40q100 0 198 37q102 39 167 98l141 801h164l-154 -868q-2 -10 -2 -19q0 -41 42 -48q15 -3 29 -3q34 0 60 16l-26 -143q-31 -20 -109 -20 q-85 0 -129 40q-38 34 -38 95q0 11 1 22q-179 -157 -418 -157q-269 0 -269 272q0 56 11 123l88 493q2 10 2 19q0 41 -42 48q-15 3 -29 3q-33 0 -60 -16z" />
<glyph unicode="v" horiz-adv-x="1183" d="M82 922l24 143q33 20 111 20q90 0 135 -47q33 -35 33 -89q0 -19 -4 -42l-86 -461q-9 -48 -10 -90q0 -87 41 -146q60 -89 178 -89q170 0 273 141q104 142 143 379q17 105 17 201q0 118 -26 223h164q25 -133 24 -256q0 -100 -16 -193q-50 -284 -192 -459 q-144 -177 -387 -177q-213 0 -308 134q-67 95 -67 237q0 60 12 128l70 389q2 10 2 19q0 41 -42 48q-15 3 -29 3q-33 0 -60 -16z" />
<glyph unicode="w" horiz-adv-x="1861" d="M98 922l25 143q33 20 110 20q91 0 136 -47q33 -33 33 -87q0 -20 -5 -44l-86 -461q-10 -52 -10 -97q0 -82 34 -139q53 -89 165 -89q147 0 243 131q97 131 140 350l82 463h159l-110 -619q-9 -51 -9 -94q0 -84 34 -142q53 -89 165 -89q153 0 252 142q98 141 137 378 q17 107 17 203q0 120 -27 221h164q26 -130 26 -255q0 -98 -16 -194q-49 -280 -187 -458t-368 -178q-258 0 -325 210q-140 -210 -377 -210q-207 0 -295 133q-60 90 -60 228q0 64 13 138l69 389q2 10 2 19q0 41 -42 48q-15 3 -29 3q-33 0 -60 -16z" />
<glyph unicode="x" horiz-adv-x="1069" d="M-53 0l510 565l-86 217q-41 108 -70 133q-30 25 -115 25h-77l24 145h66q147 0 196 -37t111 -202l63 -166l353 385h190l-481 -530l102 -259q39 -99 71 -124q33 -25 122 -25h65l-24 -147h-54q-151 0 -202 39q-55 42 -111 192l-80 209l-375 -420h-198z" />
<glyph unicode="y" horiz-adv-x="1202" d="M31 -315l59 131q157 -101 361 -101q135 0 235 79t127 229l21 116q-178 -159 -418 -159q-271 0 -271 266q0 58 13 129l88 493q2 10 2 19q0 41 -42 48q-15 3 -29 3q-33 0 -60 -16l24 143q33 20 111 20q90 0 134 -47q34 -36 34 -92q0 -18 -4 -39l-92 -516q-10 -62 -11 -76 q-1 -8 -1 -16q0 -25 5 -53q6 -40 24 -62q19 -24 54 -39q36 -16 92 -16q102 0 201 37q101 38 168 100l141 799h164l-184 -1040q-80 -455 -512 -455q-274 0 -434 115z" />
<glyph unicode="z" horiz-adv-x="1019" d="M10 0l27 150l766 768h-613l27 147h799l-27 -147l-772 -768h639l-27 -150h-819z" />
<glyph unicode="{" horiz-adv-x="638" d="M72 584l18 102q105 0 151 49t58 133l80 437q22 128 74 190q51 61 153 61h146l-23 -133h-98q-84 0 -105 -118l-67 -387q-45 -253 -205 -283q148 -30 104 -283l-67 -387q-23 -119 61 -119h99l-23 -133h-145q-103 0 -133 62q-31 64 -9 190l78 438q30 181 -147 181z" />
<glyph unicode="|" horiz-adv-x="460" d="M6 -287l324 1843h133l-324 -1843h-133z" />
<glyph unicode="}" horiz-adv-x="638" d="M-121 -287l23 133h100q81 0 104 119l68 387q44 253 203 283q-148 30 -103 283l68 387q21 118 -63 118h-99l23 133h147q103 0 133 -61q31 -64 9 -190l-80 -437q-12 -86 15 -134t132 -48l-18 -102q-179 0 -209 -181l-78 -438q-22 -128 -74 -190q-51 -62 -153 -62h-148z" />
<glyph unicode="~" horiz-adv-x="1189" d="M72 594q125 176 329 176q104 0 223 -75q117 -74 187 -74q79 0 128 30t105 90l72 -63q-130 -178 -325 -178q-96 0 -206 73q-112 74 -206 74q-136 0 -232 -123z" />
<glyph unicode="&#xa1;" horiz-adv-x="452" d="M29 -10l170 790l63 -266l-127 -790zM207 1004l39 153l145 -35l-37 -153z" />
<glyph unicode="&#xa2;" horiz-adv-x="1222" d="M109 563q41 230 196 388q157 160 379 190l35 200h151l-34 -196q302 -28 370 -324l-170 -55q-45 195 -229 219l-148 -844q192 29 306 215l149 -53q-77 -135 -200 -219q-124 -85 -283 -100l-35 -199h-152l35 201q-215 27 -313 185q-98 157 -57 392zM283 563 q-29 -171 28 -281q58 -112 197 -139l147 836q-145 -27 -244 -138q-100 -112 -128 -278z" />
<glyph unicode="&#xa3;" horiz-adv-x="1382" d="M20 117q288 155 332 387q12 75 -4 153h-254l23 134h194q-39 150 -10 319q33 200 192 325q158 124 375 124q365 0 461 -287l-158 -76q-68 199 -331 199q-149 0 -252 -77q-102 -76 -123 -208q-5 -34 -7 -71q-1 -28 4 -71q5 -40 9 -57q12 -48 16 -63q11 -40 17 -57h469 l-23 -134h-424q5 -77 -10 -153q-30 -167 -154 -303q77 32 179 32q101 0 198 -47t160 -47q115 0 201 152l141 -60q-139 -256 -371 -256q-81 0 -204 53q-120 52 -203 52q-179 0 -379 -100z" />
<glyph unicode="&#xa4;" horiz-adv-x="1175" d="M37 197l186 159q-51 98 -28 226q21 124 110 229l-131 160l135 114l131 -159q118 69 240 69q127 0 215 -69l184 159l97 -114l-187 -158q53 -112 31 -231q-21 -126 -111 -228l129 -157l-135 -115l-131 158q-113 -70 -237 -70q-123 0 -216 70l-186 -158zM358 582 q-18 -103 42 -175q61 -73 165 -73q101 0 188 73q85 71 103 175q18 103 -41 176q-60 73 -162 73q-103 0 -189 -73q-88 -74 -106 -176z" />
<glyph unicode="&#xa5;" horiz-adv-x="1337" d="M76 272l24 134h396l24 147h-393l23 133h317l-293 748h166l289 -736l549 736h163l-557 -748h328l-22 -133h-406l-25 -147h404l-25 -134h-403l-49 -272h-164l49 272h-395z" />
<glyph unicode="&#xa6;" horiz-adv-x="460" d="M6 -287l133 758h133l-133 -758h-133zM197 799l133 757h133l-133 -757h-133z" />
<glyph unicode="&#xa7;" horiz-adv-x="1064" d="M-45 4l141 53q-15 -172 70 -264q84 -92 235 -92q131 0 229 65q97 64 113 168q17 95 -47 142q-66 49 -196 78q-95 21 -168 44q-66 21 -143 62q-74 40 -105 106t-16 150q18 106 95 183q78 78 195 112q-220 96 -186 291q27 150 167 251t335 101q202 0 306 -114 q103 -114 81 -291l-139 -45q18 161 -60 240t-219 79q-126 0 -216 -59t-105 -154q-8 -48 6 -81q15 -36 39 -57t75 -42t90 -30q9 -2 46.5 -11t64.5 -15q96 -24 147 -44q62 -25 118 -62q59 -39 81 -100q23 -62 8 -144q-38 -215 -288 -291q220 -90 186 -296q-30 -164 -177 -266 q-146 -101 -341 -101q-212 0 -331 122q-118 121 -91 312zM219 541q-18 -105 69 -162q86 -56 251 -94l51 -13q223 55 256 236q16 94 -48 149t-194 84q-90 21 -135 33q-105 -28 -169 -89q-66 -63 -81 -144z" />
<glyph unicode="&#xa8;" horiz-adv-x="927" d="M141 1229l45 246h164l-45 -246h-164zM578 1229l45 246h163l-45 -246h-163z" />
<glyph unicode="&#xa9;" horiz-adv-x="1650" d="M113 715q0 315 215 527t522 212q306 0 523 -212q216 -212 216 -527q0 -318 -215 -527q-214 -208 -524 -208q-309 0 -523 208t-214 527zM184 715q0 -288 194 -479t474 -191q282 0 475 191t193 479q0 290 -193 481q-191 190 -475 190q-281 0 -474 -190q-194 -191 -194 -481 zM463 717q34 186 163 309q127 121 306 121q126 0 204 -67q76 -66 87 -175l-133 -39q-21 158 -181 158q-122 0 -203 -83q-82 -84 -106 -224q-24 -146 24 -227q47 -80 171 -80q167 0 239 153l123 -37q-50 -108 -152 -173q-103 -66 -231 -66q-180 0 -262 120q-82 119 -49 310z " />
<glyph unicode="&#xaa;" horiz-adv-x="774" d="M51 942q30 182 299 209q152 16 207 29q30 174 -141 174q-56 0 -114 -29q-56 -28 -79 -59l-84 47q29 47 112 95q80 46 185 46q279 0 234 -264l-41 -227q-21 -113 20 -160l-94 -66q-44 34 -49 109q-100 -109 -256 -109q-97 0 -157 55q-59 54 -42 150zM164 942 q-11 -54 25 -84q37 -31 92 -31q96 0 165 63q70 64 91 181l6 25q-73 -18 -199 -33q-163 -24 -180 -121z" />
<glyph unicode="&#xab;" horiz-adv-x="980" d="M61 635l480 461l71 -72l-419 -389l282 -387l-98 -74zM420 635l479 461l70 -72l-420 -389l285 -387l-99 -74z" />
<glyph unicode="&#xac;" horiz-adv-x="1222" d="M82 682l22 133h1037l-99 -565h-133l76 432h-903z" />
<glyph unicode="&#xad;" horiz-adv-x="751" d="M127 561l27 148h471l-27 -148h-471z" />
<glyph unicode="&#xae;" horiz-adv-x="931" d="M113 1075q0 158 110 268q111 111 269 111q156 0 267 -111t111 -268t-111 -268t-267 -111q-158 0 -269 111q-110 110 -110 268zM160 1075q0 -137 97 -234q98 -98 235 -98q136 0 234 98q97 97 97 234t-96 235q-96 97 -235 97q-138 0 -235 -97t-97 -235zM328 883l69 389h172 q45 0 69 -33q23 -31 15 -84q-16 -78 -82 -106q47 -18 39 -88q-6 -60 6 -78h-67q-6 27 0 78q5 31 -10 54q-15 24 -41 25h-74l-29 -157h-67zM432 1100h66q78 0 90 55q6 37 -11 47t-59 10h-65z" />
<glyph unicode="&#xaf;" horiz-adv-x="960" d="M164 1245l18 103h615l-19 -103h-614z" />
<glyph unicode="&#xb0;" horiz-adv-x="636" d="M109 1188q0 109 78 187q79 79 190 79q108 0 187 -79t79 -187q0 -111 -79 -189q-78 -77 -187 -77q-112 0 -190 77t-78 189zM211 1188q0 -68 49 -116q50 -48 117 -48q68 0 116 48t48 116t-48 116t-116 48q-67 0 -117 -48q-49 -48 -49 -116z" />
<glyph unicode="&#xb1;" horiz-adv-x="1376" d="M70 20l24 132h1049l-25 -132h-1048zM211 815l22 131h459l84 467h133l-84 -467h457l-22 -131h-457l-82 -467h-133l82 467h-459z" />
<glyph unicode="&#xb4;" horiz-adv-x="706" d="M164 1241q155 130 246 275l133 -23q-44 -82 -139 -168q-96 -86 -191 -137z" />
<glyph unicode="&#xb5;" horiz-adv-x="1241" d="M2 -410l131 748l6 37l88 493q11 58 -40 67t-89 -13l25 143q33 20 110 20q91 0 135 -47t29 -131l-90 -516q-9 -78 -10 -124q-1 -58 41 -98q43 -40 133 -40q100 0 198 37q102 39 167 98l141 801h164l-154 -868q-11 -58 40 -67t89 13l-26 -143q-31 -20 -109 -20 q-85 0 -129 40q-45 40 -37 117q-179 -157 -418 -157q-97 0 -157 32l-74 -422h-164z" />
<glyph unicode="&#xb6;" horiz-adv-x="1150" d="M199 936q41 224 210 360q171 138 379 138h486l-51 -111h-103l-260 -1470q-21 -122 -109 -192q-89 -71 -208 -71q-96 0 -158 32q-61 31 -86 73l96 90q53 -74 160 -74q62 0 112 38t62 114l100 573h-217q-215 0 -334 137q-118 136 -79 363z" />
<glyph unicode="&#xb7;" horiz-adv-x="512" d="M152 635q0 43 30 73q29 29 72 29q44 0 73 -29t29 -73q0 -43 -29 -72q-31 -31 -73 -31q-41 0 -72 31q-30 30 -30 72z" />
<glyph unicode="&#xb8;" horiz-adv-x="708" d="M164 -315l55 82q47 -62 117 -62q82 0 94 72q7 43 -21 62q-31 20 -100 20l43 161h74l-25 -96q79 0 116 -40q38 -41 26 -109q-15 -78 -76 -121t-143 -43q-109 0 -160 74z" />
<glyph unicode="&#xba;" horiz-adv-x="831" d="M80 1096q12 154 108 256t258 102q160 0 239 -102t67 -256q-15 -154 -111 -256q-97 -103 -256 -103q-161 0 -240 103q-77 101 -65 256zM184 1096q-11 -119 45 -191q55 -71 164 -71q110 0 175 71q67 73 77 191t-44 191q-55 73 -163 73t-176 -73q-67 -72 -78 -191z" />
<glyph unicode="&#xbb;" horiz-adv-x="983" d="M12 248l422 387l-282 389l96 72l315 -461l-479 -461zM371 248l420 387l-283 389l98 72l316 -461l-480 -461z" />
<glyph unicode="&#xbc;" horiz-adv-x="1406" d="M6 0l1122 1434h134l-1123 -1434h-133zM174 1210l23 138l139 86h117l-146 -820h-117l121 684zM584 199l18 108l492 512h116l-90 -512h121l-18 -108h-123l-35 -199h-117l35 199h-399zM745 307h259l59 336z" />
<glyph unicode="&#xbd;" horiz-adv-x="1452" d="M4 0l1122 1434h134l-1123 -1434h-133zM174 1210l23 138l139 86l-25 -136zM190 614l146 820h117l-146 -820h-117zM741 0l23 119q228 142 339 242q113 103 130 196q15 71 -13 111q-27 39 -94 39q-58 0 -108 -41q-49 -40 -78 -111l-102 51q41 95 117 153q79 60 192 60 q115 0 172 -69q58 -70 37 -193q-18 -107 -116 -213q-94 -101 -282 -225h328l-22 -119h-523z" />
<glyph unicode="&#xbe;" horiz-adv-x="1464" d="M-39 969l105 45q4 -62 45 -99q39 -36 112 -36q74 0 119 32q48 34 55 90q15 76 -46 102q-59 25 -156 25l10 56l8 51q214 0 238 135q6 42 -25 76q-30 33 -92 33q-144 0 -197 -150l-96 47q35 86 117 149q81 62 194 62q115 0 173 -61q59 -62 42 -156q-22 -133 -161 -184 q133 -49 112 -182q-21 -117 -115 -177q-93 -59 -200 -59q-95 0 -168 53q-72 53 -74 148zM59 0l1123 1434h133l-1122 -1434h-134zM717 352l20 109l490 512h119l-91 -512h121l-20 -109h-119l-35 -198h-119l35 198h-401zM881 461h256l59 334z" />
<glyph unicode="&#xbf;" horiz-adv-x="980" d="M37 10q22 122 81 205t163 168q6 5 28 22.5t37 29.5q46 37 71 59q27 23 55 53q32 34 49 66q18 35 24 71h164q-10 -56 -30 -103q-19 -46 -55 -86q-31 -35 -61 -63q-12 -11 -78 -64q-18 -15 -42 -34.5t-31 -24.5q-98 -81 -145 -142q-49 -64 -64 -155q-21 -114 44 -184 t173 -70q241 0 342 265l139 -58q-73 -177 -207 -265q-136 -89 -313 -89q-181 0 -277 116q-96 115 -67 283zM573 860l37 205h164l-37 -205h-164z" />
<glyph unicode="&#xc0;" horiz-adv-x="1275" d="M-47 0l768 1434h170l258 -1434h-166l-74 412h-571l-219 -412h-166zM410 545h475l-119 665zM604 1862l141 22q38 -139 148 -274l-66 -54q-79 55 -143 139q-64 83 -80 167z" />
<glyph unicode="&#xc1;" horiz-adv-x="1275" d="M-47 0l768 1434h170l258 -1434h-166l-74 412h-571l-219 -412h-166zM410 545h475l-119 665zM737 1610q157 131 246 274l133 -22q-45 -84 -138 -168q-97 -88 -192 -138z" />
<glyph unicode="&#xc2;" horiz-adv-x="1275" d="M-47 0l768 1434h170l258 -1434h-166l-74 412h-571l-219 -412h-166zM410 545h475l-119 665zM520 1616q206 145 305 268h121q60 -127 211 -268l-51 -60q-75 33 -140 90q-70 60 -102 119q-119 -131 -311 -209z" />
<glyph unicode="&#xc3;" horiz-adv-x="1275" d="M-47 0l768 1434h170l258 -1434h-166l-74 412h-571l-219 -412h-166zM410 545h475l-119 665zM514 1638q84 129 215 129q65 0 139 -54t117 -54q50 0 82 22t70 66l41 -61q-86 -130 -211 -130q-57 0 -128 54q-70 53 -128 53q-86 0 -152 -88z" />
<glyph unicode="&#xc4;" horiz-adv-x="1275" d="M-47 0l768 1434h170l258 -1434h-166l-74 412h-571l-219 -412h-166zM410 545h475l-119 665zM539 1638l32 191h164l-33 -191h-163zM973 1638l35 191h163l-34 -191h-164z" />
<glyph unicode="&#xc5;" horiz-adv-x="1275" d="M-47 0l749 1397q-100 60 -90 176q6 83 74 145t158 62q89 0 145 -62q55 -61 49 -145q-15 -129 -139 -184l250 -1389h-166l-74 412h-571l-219 -412h-166zM410 545h475l-119 665zM705 1573q-2 -51 29 -84q32 -35 81 -35q50 0 87 34q39 35 40 85q4 48 -27 84q-30 35 -79 35 q-46 0 -87 -36q-39 -35 -44 -83z" />
<glyph unicode="&#xc6;" horiz-adv-x="2119" d="M-51 0l1276 1434h923l-26 -148h-760l-84 -475h668l-27 -147h-668l-90 -514h760l-27 -150h-923l73 412h-532l-367 -412h-196zM631 545h436l109 612z" />
<glyph unicode="&#xc7;" horiz-adv-x="1378" d="M119 717q40 329 241 533t494 204q454 0 516 -455l-162 -38q-12 154 -112 249q-102 97 -260 97q-199 0 -359 -157q-159 -156 -194 -433q-33 -275 87 -432q120 -158 318 -158q160 0 285 96t176 250l151 -39q-162 -438 -598 -454l-14 -56q79 0 116 -40t25 -109 q-15 -79 -75 -121q-61 -43 -144 -43q-108 0 -159 74l55 82q47 -62 117 -62q82 0 94 72q7 43 -22 62q-31 20 -99 20l33 123q-273 16 -412 217q-139 200 -98 518z" />
<glyph unicode="&#xc8;" horiz-adv-x="1226" d="M78 0l254 1434h923l-26 -148h-760l-84 -475h670l-27 -147h-670l-90 -514h760l-27 -150h-923zM557 1862l141 22q38 -139 148 -274l-66 -54q-79 55 -143 139q-64 83 -80 167z" />
<glyph unicode="&#xc9;" horiz-adv-x="1226" d="M78 0l254 1434h923l-26 -148h-760l-84 -475h670l-27 -147h-670l-90 -515h760l-27 -149h-923zM688 1610q157 131 246 274l133 -22q-45 -84 -138 -168q-97 -88 -192 -138z" />
<glyph unicode="&#xca;" horiz-adv-x="1226" d="M78 0l254 1434h923l-26 -148h-760l-84 -475h670l-27 -147h-670l-90 -514h760l-27 -150h-923zM471 1616q206 145 305 268h121q60 -127 211 -268l-51 -60q-77 34 -141 90q-68 59 -101 119q-119 -131 -311 -209z" />
<glyph unicode="&#xcb;" horiz-adv-x="1226" d="M78 0l254 1434h923l-26 -148h-760l-84 -475h670l-27 -147h-670l-90 -514h760l-27 -150h-923zM492 1638l32 191h164l-33 -191h-163zM926 1638l35 191h163l-34 -191h-164z" />
<glyph unicode="&#xcc;" d="M78 0l254 1434h164l-254 -1434h-164zM213 1862l141 22q38 -139 148 -274l-66 -54q-79 55 -143 139q-64 83 -80 167z" />
<glyph unicode="&#xcd;" d="M78 0l254 1434h164l-254 -1434h-164zM344 1610q157 131 246 274l133 -22q-45 -84 -138 -168q-97 -88 -192 -138z" />
<glyph unicode="&#xce;" d="M78 0l254 1434h164l-254 -1434h-164zM127 1616q206 145 305 268h121q60 -127 211 -268l-51 -60q-77 34 -141 90q-68 59 -101 119q-119 -131 -311 -209z" />
<glyph unicode="&#xcf;" d="M78 0l254 1434h164l-254 -1434h-164zM147 1638l33 191h164l-33 -191h-164zM582 1638l34 191h164l-35 -191h-163z" />
<glyph unicode="&#xd0;" horiz-adv-x="1421" d="M35 643v148h211l114 643h459q282 0 422 -187q139 -185 86 -489l-16 -82q-53 -304 -258 -490t-488 -186h-459l115 643h-186zM297 150h276q234 0 380 145q148 146 194 381l16 82q41 233 -56 376q-98 145 -333 152h-276l-88 -495h249v-148h-274z" />
<glyph unicode="&#xd1;" horiz-adv-x="1484" d="M78 0l254 1434h166l583 -1188l211 1188h164l-254 -1434h-166l-583 1188l-211 -1188h-164zM604 1638q84 129 215 129q65 0 139 -54t117 -54q50 0 82 22t70 66l41 -61q-86 -130 -211 -130q-57 0 -128 54q-70 53 -128 53q-86 0 -152 -88z" />
<glyph unicode="&#xd2;" horiz-adv-x="1486" d="M119 717q40 326 243 532q202 205 492 205q288 0 441 -205t112 -532q-40 -328 -243 -534q-200 -203 -490 -203q-292 0 -444 203q-152 202 -111 534zM268 717q-30 -252 87 -423q119 -173 335 -173q219 0 378 172q159 173 189 424q30 250 -85 422t-334 172q-217 0 -378 -173 q-162 -174 -192 -421zM651 1862l142 22q39 -141 147 -274l-66 -54q-79 55 -143 139q-64 83 -80 167z" />
<glyph unicode="&#xd3;" horiz-adv-x="1486" d="M119 717q40 326 243 532q202 205 492 205q288 0 441 -205t112 -532q-40 -328 -243 -534q-200 -203 -490 -203q-292 0 -444 203q-152 202 -111 534zM268 717q-30 -252 87 -423q119 -173 335 -173q219 0 378 172q159 173 189 424q30 250 -85 422t-334 172q-217 0 -378 -173 q-162 -174 -192 -421zM784 1610q157 131 246 274l133 -22q-45 -84 -138 -168q-98 -89 -191 -138z" />
<glyph unicode="&#xd4;" horiz-adv-x="1486" d="M119 717q40 326 243 532q202 205 492 205q288 0 441 -205t112 -532q-40 -328 -243 -534q-200 -203 -490 -203q-292 0 -444 203q-152 202 -111 534zM268 717q-30 -252 87 -423q119 -173 335 -173q219 0 378 172q159 173 189 424q30 250 -85 422t-334 172q-217 0 -378 -173 q-162 -174 -192 -421zM567 1616q206 145 305 268h121q60 -127 211 -268l-51 -60q-75 33 -140 90q-70 60 -102 119q-119 -131 -311 -209z" />
<glyph unicode="&#xd5;" horiz-adv-x="1486" d="M119 717q40 326 243 532q202 205 492 205q288 0 441 -205t112 -532q-40 -328 -243 -534q-200 -203 -490 -203q-292 0 -444 203q-152 202 -111 534zM268 717q-30 -252 87 -423q119 -173 335 -173q219 0 378 172q159 173 189 424q30 250 -85 422t-334 172q-217 0 -378 -173 q-162 -174 -192 -421zM561 1638q84 129 215 129q66 0 139 -54t117 -54q50 0 82 22t70 66l41 -61q-86 -130 -211 -130q-57 0 -128 54q-70 53 -128 53q-86 0 -152 -88z" />
<glyph unicode="&#xd6;" horiz-adv-x="1486" d="M119 717q40 326 243 532q202 205 492 205q288 0 441 -205t112 -532q-40 -328 -243 -534q-200 -203 -490 -203q-292 0 -444 203q-152 202 -111 534zM268 717q-30 -252 87 -423q119 -173 335 -173q219 0 378 172q159 173 189 424q30 250 -85 422t-334 172q-217 0 -378 -173 q-162 -174 -192 -421zM586 1638l32 191h164l-32 -191h-164zM1020 1638l35 191h164l-35 -191h-164z" />
<glyph unicode="&#xd7;" horiz-adv-x="1243" d="M76 250l452 385l-317 385l111 94l317 -385l453 385l75 -94l-452 -385l317 -385l-110 -92l-318 385l-452 -385z" />
<glyph unicode="&#xd8;" horiz-adv-x="1345" d="M47 717q40 325 244 532q202 205 491 205q162 0 287 -70l49 70l84 -57l-49 -72q232 -203 182 -608q-40 -329 -242 -534q-200 -203 -491 -203q-189 0 -326 92l-63 -90l-84 57l70 98q-199 208 -152 580zM197 717q-35 -268 98 -441l684 979q-95 56 -213 56q-217 0 -378 -173 t-191 -421zM369 203q104 -82 249 -82q219 0 378 172q160 174 190 424q39 301 -127 473z" />
<glyph unicode="&#xd9;" horiz-adv-x="1431" d="M135 549l158 885h164l-150 -842q-39 -228 52 -338q91 -111 270 -111q177 0 307 109q129 108 174 340l150 842h163l-157 -885q-46 -268 -229 -419q-181 -150 -437 -150t-384 150t-81 419zM657 1862l142 22q39 -141 147 -274l-65 -54q-81 57 -144 139q-64 83 -80 167z" />
<glyph unicode="&#xda;" horiz-adv-x="1431" d="M135 549l158 885h164l-150 -842q-39 -228 52 -338q91 -111 270 -111q177 0 307 109q129 108 174 340l150 842h163l-157 -885q-46 -268 -229 -419q-181 -150 -437 -150t-384 150t-81 419zM788 1610q157 131 246 274l133 -22q-45 -84 -138 -168q-98 -89 -191 -138z" />
<glyph unicode="&#xdb;" horiz-adv-x="1431" d="M135 549l158 885h164l-150 -842q-39 -228 52 -338q91 -111 270 -111q177 0 307 109q129 108 174 340l150 842h163l-157 -885q-46 -268 -229 -419q-181 -150 -437 -150t-384 150t-81 419zM571 1616q208 146 306 268h120q60 -127 211 -268l-51 -60q-75 33 -140 90 q-70 60 -102 119q-119 -131 -311 -209z" />
<glyph unicode="&#xdc;" horiz-adv-x="1431" d="M135 549l158 885h164l-150 -842q-39 -228 52 -338q91 -111 270 -111q177 0 307 109q129 108 174 340l150 842h163l-157 -885q-46 -268 -229 -419q-181 -150 -437 -150t-384 150t-81 419zM592 1638l33 191h163l-32 -191h-164zM1026 1638l35 191h164l-35 -191h-164z" />
<glyph unicode="&#xdd;" horiz-adv-x="1335" d="M166 1434h164l327 -744h2l592 744h166l-700 -881l-99 -553h-163l98 553zM721 1610q157 131 246 274l133 -22q-45 -84 -138 -168q-97 -88 -192 -138z" />
<glyph unicode="&#xde;" horiz-adv-x="1212" d="M78 0l190 1434h164l-37 -277h426q170 0 272 -132q101 -131 74 -318q-24 -185 -158 -307q-133 -121 -304 -121h-426l-37 -279h-164zM299 428h371q138 0 228 73t106 206q18 149 -53 226t-214 77h-362z" />
<glyph unicode="&#xdf;" horiz-adv-x="1249" d="M43 0l178 1014q44 246 206 394q163 148 394 148q211 0 303 -111q93 -112 60 -294q-22 -128 -107 -228t-207 -128q156 -24 229 -127t46 -262q-34 -194 -188 -313q-152 -118 -371 -118q-146 0 -224 33l60 148q70 -31 180 -31q164 0 259 77q96 78 120 212q28 162 -79 223 t-339 61l29 164q195 0 300 73q103 72 130 222q18 108 -43 180t-186 72q-166 0 -271 -106q-105 -107 -135 -289l-180 -1014h-164z" />
<glyph unicode="&#xe0;" horiz-adv-x="1171" d="M59 535q39 224 192 388q152 162 361 162q186 0 277 -135l20 115h162l-151 -868q-6 -39 15 -57q19 -17 50 -15q27 1 57 14l-22 -139q-31 -20 -109 -20q-81 0 -123 35q-43 36 -43 104q-139 -139 -327 -139q-143 0 -234 79q-92 80 -122 205t-3 271zM223 535 q-33 -174 26 -290t216 -116q170 0 303 133l96 545q-88 133 -256 133q-158 0 -257 -117q-100 -118 -128 -288zM408 1493l141 23q39 -142 147 -275l-65 -53q-83 58 -144 138q-62 81 -79 167z" />
<glyph unicode="&#xe1;" horiz-adv-x="1171" d="M59 535q39 224 192 388q152 162 361 162q186 0 277 -135l20 115h162l-151 -868q-6 -39 15 -57q19 -17 50 -15q27 1 57 14l-22 -139q-31 -20 -109 -20q-81 0 -123 35q-43 36 -43 104q-139 -139 -327 -139q-143 0 -234 79q-92 80 -122 205t-3 271zM223 535 q-33 -174 26 -290t216 -116q170 0 303 133l96 545q-88 133 -256 133q-158 0 -257 -117q-100 -118 -128 -288zM545 1241q155 130 246 275l133 -23q-44 -82 -139 -168q-96 -86 -191 -137z" />
<glyph unicode="&#xe2;" horiz-adv-x="1171" d="M59 535q39 224 192 388q152 162 361 162q186 0 277 -135l20 115h162l-151 -868q-6 -39 15 -57q19 -17 50 -15q27 1 57 14l-22 -139q-31 -20 -109 -20q-81 0 -123 35q-43 36 -43 104q-139 -139 -327 -139q-143 0 -234 79q-92 80 -122 205t-3 271zM223 535 q-33 -174 26 -290t216 -116q170 0 303 133l96 545q-88 133 -256 133q-158 0 -257 -117q-100 -118 -128 -288zM328 1247q204 143 305 269h121q61 -129 211 -269l-52 -59q-77 35 -140 89q-67 58 -101 120q-118 -130 -312 -209z" />
<glyph unicode="&#xe3;" horiz-adv-x="1171" d="M59 535q39 224 192 388q152 162 361 162q186 0 277 -135l20 115h162l-151 -868q-6 -39 15 -57q19 -17 50 -15q27 1 57 14l-22 -139q-31 -20 -109 -20q-81 0 -123 35q-43 36 -43 104q-139 -139 -327 -139q-143 0 -234 79q-92 80 -122 205t-3 271zM223 535 q-33 -174 26 -290t216 -116q170 0 303 133l96 545q-88 133 -256 133q-158 0 -257 -117q-100 -118 -128 -288zM330 1321q84 129 215 129q65 0 140 -54q76 -55 118 -55q72 0 149 89l43 -62q-90 -129 -211 -129q-59 0 -129 53q-71 54 -129 54q-87 0 -149 -89z" />
<glyph unicode="&#xe4;" horiz-adv-x="1171" d="M59 535q39 224 192 388q152 162 361 162q186 0 277 -135l20 115h162l-151 -868q-6 -39 15 -57q19 -17 50 -15q27 1 57 14l-22 -139q-31 -20 -109 -20q-81 0 -123 35q-43 36 -43 104q-139 -139 -327 -139q-143 0 -234 79q-92 80 -122 205t-3 271zM223 535 q-33 -174 26 -290t216 -116q170 0 303 133l96 545q-88 133 -256 133q-158 0 -257 -117q-100 -118 -128 -288zM324 1229l45 246h163l-45 -246h-163zM760 1229l45 246h164l-45 -246h-164z" />
<glyph unicode="&#xe5;" horiz-adv-x="1171" d="M59 535q39 224 192 388q152 162 361 162q186 0 277 -135l20 115h162l-151 -868q-6 -39 15 -57q19 -17 50 -15q27 1 57 14l-22 -139q-31 -20 -109 -20q-81 0 -123 35q-43 36 -43 104q-139 -139 -327 -139q-143 0 -234 79q-92 80 -122 205t-3 271zM223 535 q-33 -174 26 -290t216 -116q170 0 303 133l96 545q-88 133 -256 133q-158 0 -257 -117q-100 -118 -128 -288zM428 1391q6 83 74 145q67 61 157 61q91 0 146 -61t49 -145q-7 -83 -75 -144q-65 -59 -156 -59t-147 59t-48 144zM522 1391q-4 -49 29 -84t80 -35q50 0 88 35 q36 33 41 84q4 48 -27 84q-30 34 -80 34q-47 0 -87 -34q-39 -34 -44 -84z" />
<glyph unicode="&#xe6;" horiz-adv-x="1980" d="M49 299q6 64 32 114t72 83q49 35 89 54q46 22 108 35q66 13 108 18q78 8 107 11q188 17 320 48q23 117 -37 196q-60 80 -217 80q-97 0 -197 -44q-98 -43 -133 -95l-123 65q45 78 179 150q132 71 300 71q155 0 253 -55q99 -56 126 -141q175 196 455 196q206 0 319 -89 t113 -242q0 -56 -23 -111t-88 -117q-61 -58 -159 -95q-97 -36 -259 -35q-160 1 -366 55q8 -160 110 -249q103 -89 248 -89q240 0 386 192l102 -88q-73 -110 -205 -174q-131 -63 -295 -63q-168 0 -289 77q-123 78 -174 213q-145 -290 -497 -290q-160 0 -270 83 q-112 84 -95 236zM213 299q-5 -86 67 -136q71 -50 166 -50q173 0 280 119q108 120 138 303q-114 -29 -307 -52q-73 -7 -128 -17q-48 -9 -104 -29q-55 -20 -82 -54q-29 -36 -30 -84zM1042 584q167 -46 292 -55q127 -9 207 10q76 18 128 56t71 78q19 39 19 81q0 85 -62 141 q-63 57 -206 57q-168 0 -291 -102t-158 -266z" />
<glyph unicode="&#xe7;" horiz-adv-x="1075" d="M84 532q30 241 185 398q154 155 382 155q305 0 387 -309l-157 -51q-52 213 -248 213q-155 0 -259 -112q-104 -111 -126 -294q-22 -184 48 -293q71 -110 224 -110q206 0 311 207l146 -49q-67 -133 -179 -214q-115 -84 -261 -91l-15 -58q79 0 116 -40q38 -41 26 -109 q-15 -78 -76 -121t-144 -43q-108 0 -159 74l55 82q47 -62 117 -62q82 0 94 72q7 43 -22 62q-31 20 -99 20l33 123q-208 15 -307 166q-100 153 -72 384z" />
<glyph unicode="&#xe8;" horiz-adv-x="1191" d="M78 467q0 261 180 440q179 178 444 178q207 0 320 -89t113 -242q0 -54 -24 -111t-87 -117q-61 -58 -160 -95q-97 -36 -259 -35q-158 1 -365 55q6 -159 107 -248q102 -90 251 -90q240 0 385 192l102 -88q-73 -111 -204 -174t-295 -63q-221 0 -365 135q-143 134 -143 352z M252 584q168 -46 294 -55q127 -9 207 10q76 18 128 56q50 37 70 78q20 42 20 81q0 84 -63 141t-206 57q-166 0 -290 -103q-126 -105 -160 -265zM498 1493l141 23q39 -142 147 -275l-65 -53q-81 56 -143 138q-64 83 -80 167z" />
<glyph unicode="&#xe9;" horiz-adv-x="1191" d="M78 467q0 261 180 440q179 178 444 178q207 0 320 -89t113 -242q0 -54 -24 -111t-87 -117q-61 -58 -160 -95q-97 -36 -259 -35q-158 1 -365 55q6 -159 107 -248q102 -90 251 -90q240 0 385 192l102 -88q-73 -111 -204 -174t-295 -63q-221 0 -365 135q-143 134 -143 352z M252 584q168 -46 294 -55q127 -9 207 10q76 18 128 56q50 37 70 78q20 42 20 81q0 84 -63 141t-206 57q-166 0 -290 -103q-126 -105 -160 -265zM635 1241q155 130 246 275l133 -23q-45 -84 -138 -168q-94 -85 -192 -137z" />
<glyph unicode="&#xea;" horiz-adv-x="1191" d="M78 467q0 261 180 440q179 178 444 178q207 0 320 -89t113 -242q0 -54 -24 -111t-87 -117q-61 -58 -160 -95q-97 -36 -259 -35q-158 1 -365 55q6 -159 107 -248q102 -90 251 -90q240 0 385 192l102 -88q-73 -111 -204 -174t-295 -63q-221 0 -365 135q-143 134 -143 352z M252 584q168 -46 294 -55q127 -9 207 10q76 18 128 56q50 37 70 78q20 42 20 81q0 84 -63 141t-206 57q-166 0 -290 -103q-126 -105 -160 -265zM418 1247q204 143 305 269h121q61 -129 211 -269l-51 -59q-79 35 -141 89q-67 58 -101 120q-119 -131 -311 -209z" />
<glyph unicode="&#xeb;" horiz-adv-x="1191" d="M78 467q0 261 180 440q179 178 444 178q207 0 320 -89t113 -242q0 -54 -24 -111t-87 -117q-61 -58 -160 -95q-97 -36 -259 -35q-158 1 -365 55q6 -159 107 -248q102 -90 251 -90q240 0 385 192l102 -88q-73 -111 -204 -174t-295 -63q-221 0 -365 135q-143 134 -143 352z M252 584q168 -46 294 -55q127 -9 207 10q76 18 128 56q50 37 70 78q20 42 20 81q0 84 -63 141t-206 57q-166 0 -290 -103q-126 -105 -160 -265zM414 1229l45 246h164l-45 -246h-164zM850 1229l45 246h164l-45 -246h-164z" />
<glyph unicode="&#xec;" d="M100 158l160 907h164l-154 -868q-11 -58 40 -67t89 13l-26 -143q-31 -20 -109 -20q-90 0 -134 47q-45 48 -30 131zM135 1493l141 23q39 -140 148 -275l-66 -53q-81 56 -143 138q-64 83 -80 167z" />
<glyph unicode="&#xed;" d="M100 158l160 907h164l-154 -868q-11 -58 40 -67t89 13l-26 -143q-31 -20 -109 -20q-90 0 -134 47q-45 48 -30 131zM274 1241q155 130 246 275l133 -23q-45 -84 -138 -168q-96 -86 -191 -137z" />
<glyph unicode="&#xee;" d="M55 1247q204 143 305 269h121q61 -129 211 -269l-51 -59q-77 35 -140 89q-69 59 -102 120q-119 -131 -311 -209zM100 158l160 907h164l-154 -868q-11 -58 40 -67t89 13l-26 -143q-31 -20 -109 -20q-90 0 -134 47q-45 48 -30 131z" />
<glyph unicode="&#xef;" d="M51 1229l45 246h164l-45 -246h-164zM100 158l160 907h164l-154 -868q-11 -58 40 -67t89 13l-26 -143q-31 -20 -109 -20q-90 0 -134 47q-45 48 -30 131zM487 1229l45 246h164l-45 -246h-164z" />
<glyph unicode="&#xf0;" horiz-adv-x="1122" d="M90 522q45 250 195 397q149 146 366 146q124 0 213 -53q-51 141 -145 252l-139 -119l-60 74l135 112q-76 70 -153 109l90 116q99 -55 178 -129l143 121l60 -71l-137 -117q263 -307 184 -815q-2 -6 -3 -11t-1 -12q-43 -249 -192 -396q-147 -146 -363 -146q-218 0 -316 146 t-55 396zM227 522q-30 -178 33 -294q63 -115 223 -115q159 0 265 116q107 118 137 293q29 176 -36 293t-222 117q-161 0 -266 -117q-106 -118 -134 -293z" />
<glyph unicode="&#xf1;" horiz-adv-x="1206" d="M78 0l155 868q11 58 -39 67q-51 9 -90 -13l25 143q33 20 111 20q86 0 130 -42q43 -42 36 -117q179 159 415 159q329 0 256 -405l-88 -483q-6 -38 16 -57q19 -17 50 -15q27 1 57 14l-20 -139q-33 -20 -111 -20q-88 0 -132 47q-45 48 -30 131l92 506q10 92 12 128 q3 59 -41 103q-43 43 -134 43q-97 0 -196 -39q-101 -40 -169 -102l-141 -797h-164zM428 1321q84 129 215 129q65 0 140 -54q76 -55 118 -55q73 0 150 89l43 -62q-90 -129 -211 -129q-59 0 -129 53q-71 54 -129 54q-88 0 -150 -89z" />
<glyph unicode="&#xf2;" horiz-adv-x="1196" d="M82 532q21 239 169 396t396 157q245 0 366 -157t103 -396q-21 -239 -170 -395q-150 -157 -395 -157q-248 0 -369 157t-100 395zM240 532q-16 -184 69 -296q86 -113 254 -113q169 0 274 113q105 112 121 296q17 185 -68 298q-86 114 -253 114t-274 -114t-123 -298z M440 1493l142 23q39 -142 147 -275l-65 -53q-83 58 -144 138q-64 83 -80 167z" />
<glyph unicode="&#xf3;" horiz-adv-x="1196" d="M82 532q21 239 169 396t396 157q245 0 366 -157t103 -396q-21 -239 -170 -395q-150 -157 -395 -157q-248 0 -369 157t-100 395zM240 532q-16 -184 69 -296q86 -113 254 -113q169 0 274 113q105 112 121 296q17 185 -68 298q-86 114 -253 114t-274 -114t-123 -298z M580 1241q153 128 245 275l133 -23q-45 -84 -138 -168q-96 -86 -191 -137z" />
<glyph unicode="&#xf4;" horiz-adv-x="1196" d="M82 532q21 239 169 396t396 157q245 0 366 -157t103 -396q-21 -239 -170 -395q-150 -157 -395 -157q-248 0 -369 157t-100 395zM240 532q-16 -184 69 -296q86 -113 254 -113q169 0 274 113q105 112 121 296q17 185 -68 298q-86 114 -253 114t-274 -114t-123 -298z M360 1247q206 145 306 269h120q61 -129 211 -269l-51 -59q-77 35 -140 89q-67 58 -101 120q-118 -130 -312 -209z" />
<glyph unicode="&#xf5;" horiz-adv-x="1196" d="M82 532q21 239 169 396t396 157q245 0 366 -157t103 -396q-21 -239 -170 -395q-150 -157 -395 -157q-248 0 -369 157t-100 395zM240 532q-16 -184 69 -296q86 -113 254 -113q169 0 274 113q105 112 121 296q17 185 -68 298q-86 114 -253 114t-274 -114t-123 -298z M365 1321q84 129 215 129q65 0 140 -54q76 -55 118 -55q72 0 149 89l43 -62q-90 -129 -211 -129q-59 0 -129 53q-71 54 -129 54q-87 0 -149 -89z" />
<glyph unicode="&#xf6;" horiz-adv-x="1196" d="M82 532q21 239 169 396t396 157q245 0 366 -157t103 -396q-21 -239 -170 -395q-150 -157 -395 -157q-248 0 -369 157t-100 395zM240 532q-16 -184 69 -296q86 -113 254 -113q169 0 274 113q105 112 121 296q17 185 -68 298q-86 114 -253 114t-274 -114t-123 -298z M356 1229l45 246h164l-45 -246h-164zM793 1229l45 246h163l-45 -246h-163z" />
<glyph unicode="&#xf7;" horiz-adv-x="1236" d="M82 571l24 131h1049l-25 -131h-1048zM446 270q7 44 46 78q38 33 81 33q45 0 72 -33q27 -32 19 -78q-7 -40 -47 -74q-38 -32 -80 -32q-45 0 -72 32q-26 31 -19 74zM575 999q7 43 46 75q38 32 81 32q45 0 71 -32q25 -32 18 -75t-46 -77q-37 -33 -81 -33q-45 0 -71 32 q-25 31 -18 78z" />
<glyph unicode="&#xf8;" horiz-adv-x="1036" d="M18 532q21 239 169 396t397 157q143 0 245 -57l41 57l84 -57l-41 -59q163 -156 140 -437q-21 -239 -170 -395q-150 -157 -396 -157q-129 0 -231 47l-33 -47l-84 57l33 45q-181 154 -154 450zM176 532q-18 -205 88 -317l479 688q-73 41 -170 41q-167 0 -274 -114 t-123 -298zM346 156q69 -33 154 -33q168 0 273 113q106 113 122 296q17 195 -74 304z" />
<glyph unicode="&#xf9;" horiz-adv-x="1241" d="M98 922l25 143q33 20 110 20q91 0 135 -47t29 -131l-90 -516q-9 -78 -10 -124q-1 -58 41 -98q43 -40 133 -40q100 0 198 37q102 39 167 98l141 801h164l-154 -868q-11 -58 40 -67t89 13l-26 -143q-31 -20 -109 -20q-85 0 -129 40q-45 40 -37 117q-179 -157 -418 -157 q-325 0 -258 395l88 493q11 58 -40 67t-89 -13zM461 1493l141 23q39 -140 148 -275l-66 -53q-81 56 -143 138q-64 83 -80 167z" />
<glyph unicode="&#xfa;" horiz-adv-x="1241" d="M98 922l25 143q33 20 110 20q91 0 135 -47t29 -131l-90 -516q-9 -78 -10 -124q-1 -58 41 -98q43 -40 133 -40q100 0 198 37q102 39 167 98l141 801h164l-154 -868q-11 -58 40 -67t89 13l-26 -143q-31 -20 -109 -20q-85 0 -129 40q-45 40 -37 117q-179 -157 -418 -157 q-325 0 -258 395l88 493q11 58 -40 67t-89 -13zM600 1241q155 130 246 275l133 -23q-45 -84 -138 -168q-94 -85 -192 -137z" />
<glyph unicode="&#xfb;" horiz-adv-x="1241" d="M98 922l25 143q33 20 110 20q91 0 135 -47t29 -131l-90 -516q-9 -78 -10 -124q-1 -58 41 -98q43 -40 133 -40q100 0 198 37q102 39 167 98l141 801h164l-154 -868q-11 -58 40 -67t89 13l-26 -143q-31 -20 -109 -20q-85 0 -129 40q-45 40 -37 117q-179 -157 -418 -157 q-325 0 -258 395l88 493q11 58 -40 67t-89 -13zM381 1247q204 143 305 269h121q61 -129 211 -269l-51 -59q-79 35 -141 89q-67 58 -101 120q-119 -131 -311 -209z" />
<glyph unicode="&#xfc;" horiz-adv-x="1241" d="M98 922l25 143q33 20 110 20q91 0 135 -47t29 -131l-90 -516q-9 -78 -10 -124q-1 -58 41 -98q43 -40 133 -40q100 0 198 37q102 39 167 98l141 801h164l-154 -868q-11 -58 40 -67t89 13l-26 -143q-31 -20 -109 -20q-85 0 -129 40q-45 40 -37 117q-179 -157 -418 -157 q-325 0 -258 395l88 493q11 58 -40 67t-89 -13zM377 1229l45 246h164l-45 -246h-164zM813 1229l45 246h164l-45 -246h-164z" />
<glyph unicode="&#xfd;" horiz-adv-x="1202" d="M31 -315l59 131q157 -101 361 -101q135 0 235 79t127 229l21 116q-178 -159 -418 -159q-330 0 -258 395l88 493q11 58 -40 67t-89 -13l24 143q33 20 111 20q90 0 134 -47q45 -48 30 -131l-92 -516q-10 -62 -11 -76q-2 -32 4 -69q6 -40 24 -62q19 -24 54 -39 q36 -16 92 -16q102 0 201 37q101 38 168 100l141 799h164l-184 -1040q-80 -455 -512 -455q-274 0 -434 115zM627 1241q153 128 245 275l134 -23q-44 -82 -139 -168q-96 -86 -191 -137z" />
<glyph unicode="&#xfe;" horiz-adv-x="1331" d="M6 -410l324 1844h164l-91 -516q171 167 420 167q248 0 355 -158q108 -160 65 -395q-44 -239 -206 -395q-163 -157 -408 -157q-254 0 -361 165l-98 -555h-164zM336 532q-33 -182 49 -295q83 -114 250 -114q169 0 291 114q120 113 153 295q33 183 -48 297q-82 115 -251 115 q-168 0 -291 -115q-120 -112 -153 -297z" />
<glyph unicode="&#xff;" horiz-adv-x="1202" d="M31 -315l59 131q157 -101 361 -101q135 0 235 79t127 229l21 116q-178 -159 -418 -159q-330 0 -258 395l88 493q11 58 -40 67t-89 -13l24 143q33 20 111 20q90 0 134 -47q45 -48 30 -131l-92 -516q-10 -62 -11 -76q-2 -32 4 -69q6 -40 24 -62q19 -24 54 -39 q36 -16 92 -16q102 0 201 37q101 38 168 100l141 799h164l-184 -1040q-80 -455 -512 -455q-274 0 -434 115zM403 1229l46 246h163l-45 -246h-164zM840 1229l45 246h164l-45 -246h-164z" />
<glyph unicode="&#x152;" horiz-adv-x="2154" d="M127 717q60 328 272 532q212 205 502 205q94 0 164 -20h1118l-26 -148h-854q151 -178 124 -475h553l-26 -147h-549q-73 -323 -299 -514h850l-27 -150h-1114q-76 -20 -172 -20q-291 0 -433 203q-143 205 -83 534zM276 717q-43 -249 66 -423q108 -173 326 -173 q219 0 387 172q167 172 211 424q43 248 -64 422q-106 172 -325 172t-388 -172q-170 -173 -213 -422z" />
<glyph unicode="&#x153;" horiz-adv-x="2086" d="M82 532q21 239 169 396t396 157q317 0 428 -264q86 123 221 194q134 70 295 70q207 0 320 -89q112 -88 112 -242q0 -56 -23 -111q-24 -57 -87 -117q-60 -57 -159 -95q-96 -36 -258 -35q-160 1 -368 53q6 -156 108 -246t251 -90q239 0 385 192l102 -88q-73 -110 -205 -174 q-131 -63 -294 -63q-155 0 -274 67t-181 186q-157 -253 -469 -253q-248 0 -369 157t-100 395zM240 532q-16 -184 69 -296q86 -113 254 -113q169 0 274 113q105 112 121 296q17 185 -68 298q-86 114 -253 114q-169 0 -275 -114q-105 -113 -122 -298zM1141 584 q168 -46 294 -55t206 10q76 18 128 56t71 78q20 42 20 81q0 83 -64 141q-63 57 -205 57q-167 0 -291 -103q-125 -104 -159 -265z" />
<glyph unicode="&#x178;" horiz-adv-x="1335" d="M166 1434h164l327 -744h2l592 744h166l-700 -881l-99 -553h-163l98 553zM524 1638l33 191h164l-33 -191h-164zM958 1638l35 191h164l-35 -191h-164z" />
<glyph unicode="&#x2c6;" horiz-adv-x="964" d="M164 1247q204 143 305 269h121q61 -129 211 -269l-51 -59q-79 35 -141 89q-67 58 -101 120q-119 -131 -311 -209z" />
<glyph unicode="&#x2dc;" horiz-adv-x="995" d="M164 1321q84 129 215 129q65 0 140 -54q76 -55 118 -55q72 0 149 89l43 -62q-90 -129 -211 -129q-59 0 -129 53q-71 54 -129 54q-87 0 -149 -89z" />
<glyph unicode="&#x2000;" horiz-adv-x="942" />
<glyph unicode="&#x2001;" horiz-adv-x="1884" />
<glyph unicode="&#x2002;" horiz-adv-x="942" />
<glyph unicode="&#x2003;" horiz-adv-x="1884" />
<glyph unicode="&#x2004;" horiz-adv-x="628" />
<glyph unicode="&#x2005;" horiz-adv-x="471" />
<glyph unicode="&#x2006;" horiz-adv-x="314" />
<glyph unicode="&#x2007;" horiz-adv-x="314" />
<glyph unicode="&#x2008;" horiz-adv-x="235" />
<glyph unicode="&#x2009;" horiz-adv-x="376" />
<glyph unicode="&#x200a;" horiz-adv-x="104" />
<glyph unicode="&#x2010;" horiz-adv-x="776" d="M139 561l27 148h471l-27 -148h-471z" />
<glyph unicode="&#x2011;" horiz-adv-x="776" d="M139 561l27 148h471l-27 -148h-471z" />
<glyph unicode="&#x2012;" horiz-adv-x="776" d="M139 561l27 148h471l-27 -148h-471z" />
<glyph unicode="&#x2013;" horiz-adv-x="1050" d="M139 561l27 148h745l-26 -148h-746z" />
<glyph unicode="&#x2014;" horiz-adv-x="2074" d="M139 561l27 148h1769l-26 -148h-1770z" />
<glyph unicode="&#x2018;" horiz-adv-x="372" d="M203 1096l37 215q39 195 194 241l29 -79q-98 -37 -119 -162h100l-36 -215h-205z" />
<glyph unicode="&#x2019;" horiz-adv-x="372" d="M154 1176q97 32 118 161h-100l37 215h205l-37 -215q-34 -191 -195 -241z" />
<glyph unicode="&#x201a;" horiz-adv-x="372" d="M-31 -162q98 37 119 162h-100l37 215h204l-36 -215q-35 -192 -195 -242z" />
<glyph unicode="&#x201c;" horiz-adv-x="669" d="M203 1096l37 215q39 195 194 241l29 -79q-98 -37 -119 -162h100l-36 -215h-205zM500 1096l37 215q39 195 194 241l29 -79q-98 -37 -119 -162h100l-36 -215h-205z" />
<glyph unicode="&#x201d;" horiz-adv-x="669" d="M154 1180q97 37 118 161h-100l37 215h205l-37 -215q-34 -194 -195 -239zM451 1180q97 37 118 161h-100l37 215h205l-37 -215q-34 -194 -195 -239z" />
<glyph unicode="&#x201e;" horiz-adv-x="669" d="M-31 -162q98 33 119 162h-100l37 215h204l-36 -215q-39 -196 -195 -242zM266 -162q98 33 119 162h-100l37 215h204l-37 -215q-39 -196 -194 -242z" />
<glyph unicode="&#x2022;" horiz-adv-x="755" d="M145 655q0 91 66 157q67 67 158 67q90 0 157 -67q66 -66 66 -157t-66 -157t-157 -66q-92 0 -158 66t-66 157z" />
<glyph unicode="&#x2026;" horiz-adv-x="1310" d="M94 0l41 221h205l-41 -221h-205zM473 0l41 221h205l-41 -221h-205zM852 0l41 221h205l-41 -221h-205z" />
<glyph unicode="&#x202f;" horiz-adv-x="376" />
<glyph unicode="&#x2039;" horiz-adv-x="669" d="M59 635l480 461l71 -72l-420 -389l283 -387l-98 -74z" />
<glyph unicode="&#x203a;" horiz-adv-x="669" d="M59 248l422 387l-282 389l96 72l315 -461l-479 -461z" />
<glyph unicode="&#x205f;" horiz-adv-x="471" />
<glyph unicode="&#x20ac;" horiz-adv-x="1509" d="M53 508l23 133h168q0 4 10 76q5 37 16 78h-168l23 133h186q95 244 275 385t409 141q216 0 328 -89q111 -89 156 -267l-162 -41q-61 250 -346 250q-143 0 -279 -100q-135 -99 -213 -279h543l-23 -133h-565q-11 -41 -16 -78q-10 -72 -10 -76h565l-23 -133h-544 q15 -182 113 -281q99 -100 243 -100q284 0 434 250l150 -39q-105 -179 -248 -268q-144 -90 -361 -90q-229 0 -361 142t-138 386h-185z" />
<glyph unicode="&#x2122;" horiz-adv-x="1511" d="M143 1327l19 107h573l-18 -107h-228l-96 -549h-119l97 549h-228zM721 778l115 656h120l125 -514l308 514h118l-114 -656h-119l65 375l-223 -375h-119l-90 369l-65 -369h-121z" />
<glyph unicode="&#x25fc;" horiz-adv-x="1085" d="M0 0v1085h1085v-1085h-1085z" />
</font>
</defs>
</svg>
