<svg width="36" height="40" viewBox="0 0 36 40" fill="none" xmlns="http://www.w3.org/2000/svg">
<path d="M17.8653 16.4204H17.6288C17.5788 16.4204 17.5289 16.3968 17.5 16.3547C15.7288 13.8845 14.7932 11.112 15.3609 8.01635C15.6 6.5342 16.328 5.11775 16.7905 3.69604C17.0638 2.85511 17.4737 1.53852 17.6629 0.550419C17.6682 0.521512 17.6945 0.500488 17.726 0.500488H17.8285" stroke="#B78053" stroke-width="0.4" stroke-miterlimit="10"/>
<path d="M17.8511 16.4207H17.7329C17.7066 16.4207 17.6829 16.397 17.6698 16.355C16.7842 13.8847 16.3322 11.1123 16.6002 8.01659C16.729 6.53444 17.0838 5.11799 17.315 3.69629C17.4517 2.85535 17.6567 1.53876 17.7513 0.550664C17.7539 0.521756 17.767 0.500732 17.7828 0.500732H17.8354" stroke="#B78053" stroke-width="0.4" stroke-miterlimit="10"/>
<path d="M17.8281 16.4207V16.355V8.01659V3.69891V0.550664V0.500732" stroke="#B78053" stroke-width="0.4" stroke-miterlimit="10"/>
<path d="M17.8047 16.4207H17.9229C17.9492 16.4207 17.9729 16.397 17.986 16.355C18.8716 13.8847 19.321 11.1123 19.0556 8.01659C18.9268 6.53444 18.572 5.11799 18.3408 3.69629C18.2041 2.85535 17.9992 1.53876 17.9045 0.550664C17.9019 0.521756 17.8888 0.500732 17.873 0.500732H17.8205" stroke="#B78053" stroke-width="0.4" stroke-miterlimit="10"/>
<path d="M17.7891 16.4207H18.0256C18.0755 16.4207 18.1254 16.397 18.1543 16.355C19.9256 13.8847 20.8611 11.1123 20.2935 8.01659C20.0543 6.53444 19.3264 5.11799 18.8639 3.69629C18.5906 2.85535 18.1806 1.53876 17.9914 0.550664C17.9862 0.521756 17.9599 0.500732 17.9283 0.500732H17.8259" stroke="#B78053" stroke-width="0.4" stroke-miterlimit="10"/>
<path d="M14.9234 18.273L14.8051 18.478C14.7788 18.5226 14.7342 18.5515 14.6842 18.5568C11.6595 18.8564 8.78979 18.2782 6.39313 16.2416C5.22896 15.2929 4.367 13.9553 3.36576 12.8437C2.77448 12.1867 1.83894 11.1723 1.07684 10.5154C1.05319 10.4943 1.04793 10.4628 1.0637 10.4365L1.11626 10.3472" stroke="#B78053" stroke-width="0.4" stroke-miterlimit="10"/>
<path d="M14.9137 18.2887L14.8533 18.3912C14.8401 18.4122 14.8086 18.4227 14.7639 18.4148C12.1833 17.9471 9.5554 16.9511 7.00894 15.172C5.78958 14.3205 4.74104 13.3035 3.62418 12.3943C2.96457 11.8555 1.92654 11.0199 1.11714 10.4417C1.09349 10.4233 1.08035 10.4023 1.08823 10.3892L1.11451 10.3445" stroke="#B78053" stroke-width="0.4" stroke-miterlimit="10"/>
<path d="M14.9007 18.3045C14.9007 18.3045 14.8797 18.2913 14.8429 18.2729C12.7038 17.0378 10.3018 15.6503 7.62137 14.105C6.33631 13.364 5.1117 12.6571 3.87921 11.9449C3.15127 11.5244 2.01075 10.8648 1.15405 10.3708L1.10938 10.3445" stroke="#B78053" stroke-width="0.4" stroke-miterlimit="10"/>
<path d="M14.898 18.323L14.9585 18.2205C14.9716 18.1994 14.9611 18.1653 14.9322 18.1311C13.2345 16.1286 11.0612 14.3522 8.24674 13.0356C6.90124 12.4049 5.49531 12.0054 4.14718 11.4956C3.35092 11.1934 2.10791 10.7125 1.20391 10.2999C1.17763 10.2868 1.15135 10.2894 1.14346 10.2999L1.11719 10.3446" stroke="#B78053" stroke-width="0.4" stroke-miterlimit="10"/>
<path d="M14.8875 18.3386L15.0058 18.1336C15.032 18.089 15.0347 18.0364 15.0136 17.9891C13.7601 15.2193 11.826 13.0249 8.86168 11.9685C7.45837 11.4351 5.86847 11.3562 4.40472 11.0461C3.54013 10.8622 2.19201 10.56 1.24333 10.2288C1.21442 10.2183 1.18288 10.2288 1.16975 10.2577L1.11719 10.3471" stroke="#B78053" stroke-width="0.4" stroke-miterlimit="10"/>
<path d="M15.0594 21.7393L15.1776 21.9442C15.2039 21.9889 15.2065 22.0415 15.1855 22.0888C13.932 24.8586 11.9978 27.0529 9.03355 28.1093C7.63024 28.6428 6.04035 28.7216 4.5766 29.0317C3.71201 29.2157 2.36389 29.5179 1.41521 29.849C1.3863 29.8595 1.35476 29.849 1.34162 29.8201L1.28906 29.7308" stroke="#B78053" stroke-width="0.4" stroke-miterlimit="10"/>
<path d="M15.0699 21.7549L15.1303 21.8574C15.1435 21.8784 15.133 21.9126 15.1041 21.9467C13.4064 23.9492 11.2331 25.7257 8.41862 27.0423C7.07312 27.673 5.66719 28.0724 4.31906 28.5822C3.5228 28.8844 2.27979 29.3653 1.37578 29.7779C1.34951 29.7911 1.32323 29.7884 1.31534 29.7779L1.28906 29.7333" stroke="#B78053" stroke-width="0.4" stroke-miterlimit="10"/>
<path d="M15.0804 21.7732C15.0804 21.7732 15.0594 21.7863 15.0226 21.8047C12.8835 23.0399 10.4815 24.4274 7.80106 25.9726C6.516 26.7137 5.29139 27.4206 4.0589 28.1328C3.33096 28.5532 2.19044 29.2128 1.33374 29.7069L1.28906 29.7332" stroke="#B78053" stroke-width="0.4" stroke-miterlimit="10"/>
<path d="M15.0934 21.7892L15.033 21.6867C15.0198 21.6656 14.9883 21.6551 14.9436 21.663C12.363 22.1308 9.73508 23.1268 7.18863 24.9059C5.96927 25.7573 4.92073 26.7743 3.80386 27.6836C3.14425 28.2223 2.10622 29.058 1.29682 29.6361C1.27317 29.6545 1.26003 29.6756 1.26792 29.6887L1.29419 29.7334" stroke="#B78053" stroke-width="0.4" stroke-miterlimit="10"/>
<path d="M15.1031 21.8049L14.9848 21.5999C14.9585 21.5552 14.9138 21.5263 14.8639 21.521C11.8392 21.2215 8.96948 21.7996 6.57282 23.8362C5.40865 24.7849 4.54669 26.1225 3.54545 27.2342C2.95417 27.8911 2.01862 28.9055 1.25653 29.5625C1.23287 29.5835 1.22762 29.6151 1.24339 29.6413L1.29595 29.7307" stroke="#B78053" stroke-width="0.4" stroke-miterlimit="10"/>
<path d="M18.1406 23.356H18.3771C18.4271 23.356 18.477 23.3796 18.5059 23.4217C20.2771 25.8919 21.2127 28.6644 20.645 31.7601C20.4059 33.2422 19.678 34.6587 19.2154 36.0804C18.9421 36.9213 18.5322 38.2379 18.343 39.226C18.3377 39.2549 18.3114 39.2759 18.2799 39.2759H18.1774" stroke="#B78053" stroke-width="0.4" stroke-miterlimit="10"/>
<path d="M18.1562 23.356H18.2745C18.3008 23.356 18.3244 23.3796 18.3376 23.4217C19.2232 25.8919 19.6726 28.6644 19.4071 31.7601C19.2784 33.2422 18.9236 34.6587 18.6923 36.0804C18.5557 36.9213 18.3507 38.2379 18.2561 39.226C18.2535 39.2549 18.2403 39.2759 18.2246 39.2759H18.172" stroke="#B78053" stroke-width="0.4" stroke-miterlimit="10"/>
<path d="M18.1797 23.356V23.4217V31.7601V36.0777V39.226V39.2759" stroke="#B78053" stroke-width="0.4" stroke-miterlimit="10"/>
<path d="M18.2027 23.356H18.0844C18.0582 23.356 18.0345 23.3796 18.0214 23.4217C17.1358 25.8919 16.6837 28.6644 16.9518 31.7601C17.0806 33.2422 17.4353 34.6587 17.6666 36.0804C17.8032 36.9213 18.0082 38.2379 18.1028 39.226C18.1055 39.2549 18.1186 39.2759 18.1344 39.2759H18.1869" stroke="#B78053" stroke-width="0.4" stroke-miterlimit="10"/>
<path d="M18.2168 23.356H17.9803C17.9304 23.356 17.8805 23.3796 17.8516 23.4217C16.0803 25.8919 15.1448 28.6644 15.7124 31.7601C15.9516 33.2422 16.6795 34.6587 17.142 36.0804C17.4153 36.9213 17.8253 38.2379 18.0145 39.226C18.0198 39.2549 18.046 39.2759 18.0776 39.2759H18.1801" stroke="#B78053" stroke-width="0.4" stroke-miterlimit="10"/>
<path d="M21.0781 21.5026L21.1964 21.2976C21.2227 21.253 21.2673 21.2241 21.3173 21.2188C24.342 20.9192 27.2117 21.4974 29.6084 23.534C30.7725 24.4827 31.6345 25.8203 32.6357 26.9319C33.227 27.5889 34.1626 28.6033 34.9246 29.2602C34.9483 29.2813 34.9536 29.3128 34.9378 29.3391L34.8852 29.4284" stroke="#B78053" stroke-width="0.4" stroke-miterlimit="10"/>
<path d="M21.0859 21.4869L21.1464 21.3844C21.1595 21.3634 21.1911 21.3529 21.2357 21.3608C23.819 21.8285 26.4443 22.8245 28.9907 24.6036C30.2101 25.4551 31.2586 26.4721 32.3755 27.3813C33.0351 27.9201 34.0731 28.7557 34.8825 29.3339C34.9062 29.3523 34.9193 29.3733 34.9114 29.3865L34.8852 29.4311" stroke="#B78053" stroke-width="0.4" stroke-miterlimit="10"/>
<path d="M21.1016 21.4712C21.1016 21.4712 21.1226 21.4843 21.1594 21.5027C23.2985 22.7379 25.7004 24.1254 28.3809 25.6706C29.6633 26.4117 30.8906 27.1186 32.1231 27.8308C32.851 28.2512 33.9915 28.9108 34.8482 29.4049L34.8929 29.4312" stroke="#B78053" stroke-width="0.4" stroke-miterlimit="10"/>
<path d="M21.1051 21.4526L21.0447 21.5551C21.0315 21.5761 21.042 21.6103 21.0709 21.6445C22.7686 23.6469 24.9419 25.4234 27.7564 26.74C29.1019 27.3707 30.5078 27.7702 31.8559 28.28C32.6522 28.5822 33.8952 29.0631 34.7992 29.4757C34.8255 29.4888 34.8518 29.4862 34.8596 29.4757L34.8859 29.431" stroke="#B78053" stroke-width="0.4" stroke-miterlimit="10"/>
<path d="M21.1167 21.437L20.9985 21.642C20.9722 21.6867 20.9696 21.7392 20.9906 21.7865C22.2441 24.5564 24.1782 26.7507 27.1425 27.8071C28.5459 28.3406 30.1357 28.4194 31.5995 28.7295C32.4641 28.9135 33.8122 29.2157 34.7609 29.5468C34.7898 29.5573 34.8213 29.5468 34.8371 29.5179L34.8897 29.4285" stroke="#B78053" stroke-width="0.4" stroke-miterlimit="10"/>
<path d="M20.937 18.0364L20.8188 17.8314C20.7925 17.7867 20.7899 17.7341 20.8109 17.6868C22.0644 14.917 23.9986 12.7227 26.9629 11.6663C28.3662 11.1328 29.9561 11.054 31.4198 10.7439C32.2844 10.5599 33.6325 10.2577 34.5812 9.92659C34.6101 9.91608 34.6416 9.92659 34.6574 9.9555L34.71 10.0449" stroke="#B78053" stroke-width="0.4" stroke-miterlimit="10"/>
<path d="M20.9332 18.0207L20.8728 17.9182C20.8596 17.8972 20.8702 17.863 20.8991 17.8289C22.5967 15.8264 24.77 14.0499 27.5845 12.7333C28.93 12.1026 30.3359 11.7032 31.6841 11.1934C32.4803 10.8912 33.7233 10.4102 34.6273 9.99767C34.6536 9.98453 34.6799 9.98715 34.6878 9.99767L34.7141 10.0423" stroke="#B78053" stroke-width="0.4" stroke-miterlimit="10"/>
<path d="M20.9219 18.0022C20.9219 18.0022 20.9429 17.9891 20.9797 17.9707C23.1188 16.7356 25.5207 15.348 28.2012 13.8028C29.4836 13.0617 30.7109 12.3548 31.9434 11.6426C32.6713 11.2222 33.8118 10.5626 34.6685 10.0685L34.7132 10.0422" stroke="#B78053" stroke-width="0.4" stroke-miterlimit="10"/>
<path d="M20.9062 17.9864L20.9667 18.0889C20.9798 18.11 21.0114 18.1205 21.056 18.1126C23.6393 17.6448 26.2646 16.6488 28.811 14.8697C30.0304 14.0183 31.0789 13.0013 32.1958 12.092C32.8554 11.5533 33.8934 10.7176 34.7028 10.1395C34.7265 10.1211 34.7396 10.1001 34.7318 10.0869L34.7055 10.0422" stroke="#B78053" stroke-width="0.4" stroke-miterlimit="10"/>
<path d="M20.8984 17.9707L21.0167 18.1757C21.043 18.2204 21.0876 18.2493 21.1376 18.2545C24.1623 18.5541 27.032 17.976 29.4287 15.9394C30.5928 14.9907 31.4548 13.6531 32.456 12.5414C33.0473 11.8845 33.9829 10.8701 34.745 10.2131C34.7686 10.1921 34.7739 10.1605 34.7581 10.1343L34.7055 10.0449" stroke="#B78053" stroke-width="0.4" stroke-miterlimit="10"/>
</svg>
